<?xml version="1.0" encoding="utf-8"?>
<!-- Generator: Adobe Illustrator 25.2.1, SVG Export Plug-In . SVG Version: 6.00 Build 0)  -->
<svg version="1.1" id="Layer_1" xmlns="http://www.w3.org/2000/svg" xmlns:xlink="http://www.w3.org/1999/xlink" x="0px" y="0px"
	 viewBox="0 0 100 100" style="enable-background:new 0 0 100 100;" xml:space="preserve">
<style type="text/css">
	.st0{fill:#FEF3EA;}
	.st1{fill:#191919;}
</style>
<g>
	<g>
		<circle class="st0" cx="50" cy="50" r="50"/>
	</g>
	<g>
		<path class="st1" d="M44.2,55.1c-1.4-0.4-3.1-1-5-2c-1.6-0.8-4.8-2.7-7.8-6.2c-2.1-2.4-3.8-5.1-5-8.1c-0.1-0.1,0-0.3,0.1-0.3
			c0.1-0.1,0.3,0,0.3,0.1c1.2,2.9,2.8,5.6,4.9,7.9c3,3.4,6.1,5.3,7.6,6.1c3.4,1.8,6.4,2.3,7.9,2.6c2,0.4,5.1,0.9,9,0.2
			c5.3-0.9,8.8-3.5,10.2-4.5c2.7-2,4.5-4.2,5.3-5.1c0.9-1.1,1.8-2.3,2.5-3.6c0.1-0.1,0.2-0.2,0.3-0.1c0.1,0.1,0.2,0.2,0.1,0.3
			C73.8,43.7,73,44.9,72,46c-0.8,1-2.6,3.2-5.4,5.2c-1.4,1-5,3.7-10.4,4.6c-4,0.7-7.1,0.1-9.2-0.2C46.6,55.7,45.5,55.5,44.2,55.1z"
			/>
		<g>
			<path class="st1" d="M17.9,42.1c-0.1,0.1-0.3,0.1-0.5,0.2l-0.2,0.1c-0.1,0-0.1,0.1-0.2,0.1c-0.2,0.1-0.4,0.2-0.6,0.3
				S16,43,15.8,43.1c-0.2,0.1-0.4,0.3-0.5,0.4c-0.2,0.1-0.3,0.3-0.5,0.4c-0.1,0.1-0.1,0-0.1-0.1c0.1-0.2,0.3-0.3,0.4-0.5
				c0.1-0.1,0.3-0.3,0.4-0.4c0.1-0.1,0.2-0.1,0.2-0.2l0.2-0.2c0.1-0.1,0.2-0.1,0.2-0.2l0.3-0.2c0.3-0.3,0.7-0.5,1.1-0.7
				s0.8-0.4,1.2-0.5c1.1-0.4,2.1-0.7,3.2-0.9c0.9-0.2,1.7-0.2,2.6-0.3c0.9,0,1.7,0,2.6,0l0,0c0.1,0,0.1,0,0.1,0v0.5h-0.1
				c-1.4,0-2.9,0-4.3,0.3c-0.8,0.1-1.7,0.3-2.5,0.6C19.5,41.5,18.7,41.8,17.9,42.1z"/>
		</g>
		<g>
			<path class="st1" d="M19,45.3c-0.1,0.1-0.3,0.2-0.4,0.3l-0.2,0.1l-0.2,0.1c-0.8,0.5-1.5,1-2.1,1.7c-0.1,0.1-0.1,0.1-0.1,0
				c0.1-0.2,0.2-0.4,0.4-0.5c0.1-0.2,0.3-0.3,0.4-0.5c0.1-0.1,0.1-0.2,0.2-0.2l0.2-0.2c0.1-0.1,0.2-0.2,0.2-0.2l0.2-0.2l0.2-0.2
				l0.1-0.1l0.1-0.1c0.2-0.1,0.4-0.3,0.5-0.4c0.2-0.1,0.4-0.2,0.6-0.4c0.1-0.1,0.2-0.1,0.3-0.2l0.3-0.2c1-0.5,2.1-1,3.2-1.3
				c0.9-0.2,1.8-0.4,2.7-0.5c0.2,0,0.4,0,0.7-0.1c0.1,0,0.2,0,0.3,0h0.3c0.2,0,0.5,0,0.7,0h0.7l0,0c0.1,0,0.1,0,0.1,0v0.5h-0.1
				c-1.5,0-3,0.1-4.4,0.5c-0.9,0.2-1.7,0.5-2.5,0.9C20.6,44.4,19.8,44.8,19,45.3z"/>
		</g>
		<g>
			<path class="st1" d="M24.8,41.7c-0.6,0.1-1.2,0.1-1.9,0.3c-0.2,0-0.3,0.1-0.5,0.1s-0.3,0.1-0.5,0.1c-0.1,0.1-0.3,0.1-0.4,0.2
				c-0.1,0.1-0.2,0.1-0.3,0.1c0,0-0.1,0,0-0.1c0.4-0.4,0.9-0.7,1.5-1c0.5-0.2,1.1-0.4,1.7-0.5c1.1-0.2,2.3-0.1,3.4,0.2l0,0
				c0,0,0,0,0,0.1l-0.1,0.5c0,0,0,0-0.1,0c-0.5-0.1-1-0.1-1.5-0.1C25.8,41.6,25.3,41.6,24.8,41.7z"/>
		</g>
		<g>
			<path class="st1" d="M20.5,48.8c-0.3,0.2-0.6,0.4-0.9,0.6c-0.8,0.5-1.5,1.1-2.2,1.8c-0.1,0.1-0.1,0-0.1-0.1
				c0.6-0.7,1.1-1.3,1.8-2c0.6-0.6,1.3-1.2,2.1-1.7c1-0.6,2.1-1.2,3.2-1.7c0.9-0.3,1.7-0.6,2.6-0.9c0.9-0.2,1.8-0.4,2.7-0.4l0,0
				c0.1,0,0.1,0,0.1,0v0.5c0,0,0,0-0.1,0.1c-0.4,0.1-0.8,0.1-1.1,0.2c-0.2,0-0.4,0.1-0.6,0.1l-0.6,0.1l-0.3,0.1L27,45.6l-0.6,0.2
				L25.9,46h-0.3l-0.3,0.1c-0.9,0.3-1.7,0.7-2.5,1.2c-0.4,0.2-0.8,0.5-1.2,0.7L21,48.4C20.9,48.5,20.7,48.6,20.5,48.8z"/>
		</g>
		<g>
			<path class="st1" d="M25.3,44.3c-0.7,0.2-1.4,0.4-2.1,0.7s-1.5,0.7-1.8,1c-0.1,0-0.1,0-0.1-0.1c0.9-1.1,2.2-1.9,3.5-2.3
				c1.3-0.4,2.7-0.6,4-0.5l0,0h0.1v0.5c0,0,0,0-0.1,0C27.7,43.8,26.5,44,25.3,44.3z"/>
		</g>
		<g>
			<path class="st1" d="M23.1,53c-0.3,0.2-0.5,0.5-0.8,0.7c-0.7,0.7-1.4,1.3-2,2c-0.1,0.1-0.1,0.1-0.1-0.1c1-1.4,2-2.9,3.4-4.2
				c0.9-0.8,1.7-1.6,2.7-2.4c0.4-0.3,0.7-0.5,1.1-0.8s0.8-0.5,1.2-0.7c0.8-0.5,1.6-0.9,2.5-1.2l0,0c0.1,0,0.1,0,0.1,0l0.2,0.5
				c0,0,0,0.1-0.1,0.1c-0.7,0.3-1.4,0.7-2.1,1.1c-0.7,0.4-1.3,0.8-1.9,1.3c-0.7,0.5-1.5,1.1-2.2,1.8C24.4,51.7,23.8,52.3,23.1,53z"
				/>
		</g>
		<g>
			<path class="st1" d="M27.3,47c-0.6,0.3-1.2,0.6-1.8,1c-0.1,0.1-0.3,0.2-0.4,0.3s-0.3,0.2-0.4,0.4c-0.1,0.1-0.2,0.2-0.3,0.3
				c-0.1,0.1-0.2,0.2-0.2,0.3h-0.1c0.2-0.6,0.6-1.2,1.1-1.6c0.5-0.5,1-0.9,1.6-1.2c1.1-0.6,2.4-1,3.6-1.1l0,0h0.1l0.1,0.5
				c0,0,0,0,0,0.1C29.4,46.1,28.3,46.5,27.3,47z"/>
		</g>
		<g>
			<path class="st1" d="M29.4,49.7c-0.6,0.4-1.1,0.9-1.7,1.3c-0.6,0.4-1.1,1-1.4,1.3h-0.1c0.6-1.1,1.5-2.2,2.5-3.1
				c1-0.8,2.1-1.5,3.3-1.9l0,0h0.1l0.2,0.5c0,0,0,0,0,0.1C31.2,48.4,30.3,49.1,29.4,49.7z"/>
		</g>
		<g>
			<path class="st1" d="M25.3,56c-0.3,0.3-0.5,0.5-0.8,0.8c-0.7,0.7-1.4,1.5-2,2.2c-0.1,0.1-0.1,0.1-0.1,0c1-1.5,2-3.1,3.3-4.5
				c0.8-0.9,1.7-1.8,2.7-2.6c0.7-0.6,1.5-1.3,2.3-1.8c0.8-0.6,1.6-1.1,2.5-1.5l0,0c0.1,0,0.1,0,0.1,0l0.2,0.4c0,0,0,0.1-0.1,0.1
				c-0.7,0.4-1.4,0.9-2.1,1.3c-0.7,0.5-1.3,1-1.9,1.5c-0.7,0.6-1.4,1.3-2.1,2C26.6,54.5,25.9,55.3,25.3,56z"/>
		</g>
		<g>
			<path class="st1" d="M31.9,52c-0.6,0.5-1.1,1-1.6,1.6c-0.3,0.3-0.5,0.6-0.7,0.9c-0.1,0.2-0.2,0.3-0.3,0.4
				c-0.1,0.1-0.1,0.3-0.2,0.4c0,0.1-0.1,0-0.1,0c0.1-0.7,0.4-1.4,0.8-1.9c0.4-0.6,0.8-1.1,1.3-1.6s1-0.9,1.5-1.3
				c0.5-0.4,1.1-0.8,1.7-1.1l0,0h0.1l0.2,0.4c0,0,0,0,0,0.1c-0.5,0.3-1,0.7-1.4,1C32.8,51.2,32.3,51.6,31.9,52z"/>
		</g>
		<g>
			<path class="st1" d="M28.5,59.1c-0.2,0.3-0.4,0.6-0.7,0.9c-0.6,0.8-1.2,1.6-1.7,2.5c-0.1,0.1-0.1,0.1-0.1,0
				c0.4-0.8,0.8-1.7,1.2-2.5c0.4-0.8,0.9-1.6,1.5-2.4c0.7-1,1.5-2,2.3-2.9c0.6-0.7,1.3-1.4,2-2.1c0.7-0.7,1.4-1.3,2.1-2l0,0
				c0.1,0,0.1-0.1,0.1-0.1l0.3,0.4c0,0,0,0.1-0.1,0.1c-1.2,1.1-2.4,2.3-3.5,3.5c-0.6,0.7-1.3,1.5-1.9,2.3c-0.3,0.4-0.6,0.8-0.9,1.2
				C29.1,58.3,28.8,58.7,28.5,59.1z"/>
		</g>
		<g>
			<path class="st1" d="M32.9,62.2c-0.2,0.3-0.3,0.7-0.5,1c-0.4,0.9-0.9,1.9-1.2,2.8c-0.1,0.1-0.1,0.1-0.1,0
				c0.2-0.9,0.5-1.9,0.8-2.8c0.3-0.9,0.6-1.8,1-2.7c0.5-1.2,1.1-2.3,1.8-3.4c0.5-0.9,1-1.7,1.6-2.5s1.2-1.6,1.8-2.4l0,0
				c0-0.1,0.1-0.1,0.1-0.1l0.4,0.3v0.1c-1,1.3-2,2.7-2.9,4.2c-0.5,0.9-1,1.8-1.5,2.7c-0.2,0.5-0.5,0.9-0.7,1.4
				C33.4,61.3,33.1,61.7,32.9,62.2z"/>
		</g>
		<g>
			<path class="st1" d="M34.7,54.3c-0.5,0.6-1,1.2-1.4,1.9c-0.2,0.3-0.4,0.7-0.6,1c-0.1,0.2-0.1,0.3-0.2,0.5
				c-0.1,0.1-0.1,0.3-0.1,0.4c0,0.1-0.1,0-0.1,0c0-0.7,0.2-1.4,0.5-2.1c0.3-0.7,0.7-1.3,1.1-1.9c0.8-1.1,1.9-2.1,3-2.8l0,0H37
				l0.3,0.4c0,0,0,0,0,0.1C36.3,52.4,35.5,53.3,34.7,54.3z"/>
		</g>
		<g>
			<path class="st1" d="M36.9,64c-0.2,0.3-0.4,0.7-0.6,1c-0.5,0.9-1.1,1.7-1.6,2.6c-0.1,0.1-0.1,0.1-0.1,0c0.8-1.7,1.4-3.4,2.2-5.1
				c0.5-1.1,1-2.2,1.5-3.4c0.8-1.7,1.5-3.5,2.2-5.3l0,0c0-0.1,0.1-0.1,0.1-0.1l0.5,0.2V54c-0.6,1.6-1.1,3.1-1.8,4.6
				C38.6,60.5,37.8,62.3,36.9,64z"/>
		</g>
		<g>
			<path class="st1" d="M41,65.7c-0.1,0.4-0.3,0.7-0.4,1.1c-0.4,1-0.8,1.9-1.2,2.9c-0.1,0.1-0.1,0.1-0.1,0c0.5-1.8,0.9-3.7,1.5-5.5
				c0.4-1.2,0.8-2.4,1.1-3.6c0.6-1.9,1.1-3.8,1.6-5.7l0,0c0-0.1,0-0.1,0.1-0.1l0.5,0.1V55c-0.3,1.7-0.8,3.3-1.2,5
				C42.3,61.9,41.7,63.9,41,65.7z"/>
		</g>
		<g>
			<path class="st1" d="M41.8,58c-0.3,0.8-0.6,1.5-0.9,2.3c-0.3,0.7-0.7,1.6-0.9,2c0,0.1-0.1,0-0.1,0c0.2-1.4,0.6-2.8,1.1-4.2
				c0.4-1.3,0.8-2.6,1.1-3.9l0,0c0,0,0-0.1,0.1,0l0.5,0.1c0,0,0,0,0,0.1C42.5,55.5,42.2,56.8,41.8,58z"/>
		</g>
		<g>
			<path class="st1" d="M38.4,56.5c-0.3,0.7-0.7,1.3-1.1,1.9c-0.4,0.6-0.8,1.4-1,1.7h-0.1c0.3-1.3,0.8-2.5,1.3-3.7
				c0.5-1.1,1.2-2.2,1.8-3.3l0,0c0,0,0,0,0.1,0l0.5,0.2c0,0,0,0,0,0.1C39.4,54.4,38.9,55.4,38.4,56.5z"/>
		</g>
		<g>
			<path class="st1" d="M45.4,59.3c-0.1,0.8-0.3,1.7-0.6,2.4c-0.3,0.8-0.6,1.7-0.8,2.1c0,0.1-0.1,0-0.1,0c0.2-1.4,0.4-2.9,0.7-4.3
				c0.2-1.4,0.4-2.8,0.5-4.1l0,0v-0.1h0.5c0,0,0,0,0,0.1C45.7,56.7,45.6,58,45.4,59.3z"/>
		</g>
		<g>
			<path class="st1" d="M46.1,66.6c-0.1,0.4-0.2,0.7-0.3,1.1c-0.3,1-0.6,1.9-0.9,2.9c0,0.1-0.1,0.1-0.1,0c0.3-1.8,0.5-3.7,0.9-5.5
				c0.3-1.2,0.5-2.4,0.6-3.6c0.1-0.9,0.2-1.9,0.3-2.8c0.1-0.9,0.1-1.9,0-2.8l0,0c0-0.1,0-0.1,0-0.1h0.5v0.1c0.1,1.7,0.1,3.3-0.1,5
				c-0.1,1-0.2,2-0.4,2.9C46.6,64.7,46.4,65.6,46.1,66.6z"/>
		</g>
		<g>
			<path class="st1" d="M49.2,59.7c0,0.8-0.1,1.6-0.2,2.4c-0.1,0.8-0.3,1.7-0.4,2.1c0,0.1-0.1,0.1-0.1,0c-0.1-1.4-0.1-2.8-0.1-4.3
				c0-1.3,0.1-2.7,0.1-4.1l0,0v-0.1H49c0,0,0,0,0,0.1C49.2,57.1,49.2,58.4,49.2,59.7z"/>
		</g>
		<g>
			<path class="st1" d="M50.7,67.1c-0.1,0.4-0.1,0.7-0.2,1.1c-0.2,1-0.4,2-0.5,3c0,0.1-0.1,0.1-0.1,0c0.1-1.8,0.1-3.7,0.2-5.5
				c0.1-1.2,0.2-2.4,0.2-3.7c0.1-1.9,0-3.8-0.2-5.7l0,0c0-0.1,0-0.1,0-0.1l0.5-0.1c0,0,0,0.1,0.1,0.1c0.2,1.6,0.3,3.3,0.3,5
				c0,1,0,2-0.1,3C51,65.1,50.9,66.1,50.7,67.1z"/>
		</g>
		<g>
			<path class="st1" d="M53.4,60.1c0.1,0.8,0,1.6-0.1,2.5c-0.1,0.4-0.1,0.8-0.2,1.2c0,0.2-0.1,0.4-0.1,0.5c0,0.2-0.1,0.3-0.1,0.4
				s-0.1,0.1-0.1,0c0-1.4-0.1-2.8-0.2-4.2c-0.1-1.3-0.3-2.7-0.5-4l0,0v-0.1l0.5-0.1c0,0,0,0,0.1,0C53.1,57.5,53.4,58.8,53.4,60.1z"
				/>
		</g>
		<g>
			<path class="st1" d="M56.1,67.1c0,0.4,0,0.8,0,1.2c0,1-0.1,2.1-0.2,3.1c0,0.1-0.1,0.1-0.1,0c-0.1-1.9-0.3-3.8-0.5-5.7
				c0-0.6-0.1-1.2-0.2-1.9L55,61.9c-0.2-1.9-0.5-3.9-1-5.7l0,0c0-0.1,0-0.1,0-0.1l0.5-0.2c0,0,0.1,0,0.1,0.1c0.6,1.6,0.9,3.3,1.1,5
				c0.1,1,0.3,2,0.4,3C56.1,65.1,56.1,66.1,56.1,67.1z"/>
		</g>
		<g>
			<path class="st1" d="M82.7,45.8c0.3,0.2,0.5,0.4,0.8,0.6c0.6,0.6,1.2,1.2,1.8,1.8c0.1,0.1,0,0.1-0.1,0.1
				c-0.6-0.5-1.2-0.9-1.9-1.4c-0.7-0.4-1.3-0.8-2-1.1c-0.9-0.5-1.8-0.8-2.8-1.1c-0.7-0.2-1.5-0.4-2.3-0.5S74.6,44,73.9,44l0,0
				c-0.1,0-0.1,0-0.1,0v-0.5c0,0,0,0,0.1,0c1.4-0.1,2.8,0,4.2,0.4c0.8,0.2,1.6,0.5,2.4,0.8c0.4,0.2,0.8,0.4,1.1,0.6
				C82,45.4,82.4,45.6,82.7,45.8z"/>
		</g>
		<g>
			<path class="st1" d="M81.7,48.9c0.3,0.2,0.5,0.4,0.8,0.6c0.7,0.6,1.3,1.3,1.9,1.9c0.1,0.1,0,0.1-0.1,0.1c-0.6-0.5-1.3-1-2-1.5
				c-0.7-0.4-1.4-0.8-2.1-1.3c-0.9-0.5-1.9-1-3-1.3c-0.8-0.3-1.6-0.5-2.4-0.7s-1.7-0.3-2.5-0.4l0,0c-0.1,0-0.1,0-0.1-0.1v-0.5h0.1
				c1.5,0.1,3,0.3,4.5,0.7c0.9,0.2,1.7,0.6,2.5,1c0.4,0.2,0.8,0.4,1.2,0.6C80.9,48.3,81.3,48.6,81.7,48.9z"/>
		</g>
		<g>
			<path class="st1" d="M80.1,52c0.3,0.2,0.6,0.5,0.8,0.8c0.7,0.7,1.3,1.5,1.9,2.3c0.1,0.1,0,0.1-0.1,0.1c-0.6-0.7-1.3-1.2-2-1.8
				c-0.7-0.5-1.4-1.1-2.2-1.6c-1-0.7-2-1.2-3.1-1.7c-0.8-0.4-1.7-0.7-2.6-0.9s-1.8-0.4-2.7-0.6l0,0c-0.1,0-0.1,0-0.1-0.1l0.1-0.5
				h0.1c0.4,0,0.8,0.1,1.2,0.2c0.2,0,0.4,0.1,0.6,0.1l0.6,0.1c0.2,0,0.4,0.1,0.6,0.2l0.6,0.2l0.6,0.2l0.3,0.1l0.3,0.1
				c0.9,0.3,1.8,0.8,2.7,1.2c0.4,0.2,0.8,0.5,1.3,0.8C79.4,51.4,79.8,51.7,80.1,52z"/>
		</g>
		<g>
			<path class="st1" d="M77.3,55.5c0.2,0.3,0.5,0.6,0.7,0.9c0.6,0.8,1.1,1.6,1.7,2.5c0.1,0.1,0,0.2-0.1,0c-0.6-0.7-1.2-1.4-1.8-2
				c-0.6-0.7-1.3-1.3-1.9-1.9c-0.8-0.8-1.8-1.6-2.7-2.3c-0.8-0.5-1.6-1-2.4-1.4c-0.2-0.1-0.4-0.2-0.6-0.3c-0.1,0-0.2-0.1-0.3-0.1
				l-0.3-0.1l-0.3-0.1c-0.1,0-0.2-0.1-0.3-0.1l-0.7-0.2l0,0c-0.1,0-0.1,0-0.1-0.1l0.1-0.5h0.1c0.4,0.1,0.8,0.2,1.2,0.3l0.6,0.2
				l0.6,0.2l0.3,0.1l0.3,0.1L72,51c0.2,0.1,0.4,0.2,0.5,0.3l0.3,0.1c0.1,0.1,0.2,0.1,0.3,0.2c0.8,0.5,1.6,1.1,2.4,1.7
				c0.4,0.3,0.7,0.7,1.1,1C76.7,54.8,77,55.2,77.3,55.5z"/>
		</g>
		<g>
			<path class="st1" d="M74.2,58.7c0.2,0.3,0.3,0.7,0.5,1.1c0.3,1,0.6,2,0.7,3c0,0.1,0,0.1-0.1,0c-0.1-0.2-0.1-0.4-0.2-0.7L75,61.9
				v-0.2l-0.1-0.3c-0.2-0.4-0.4-0.8-0.6-1.3c-0.4-0.8-0.9-1.6-1.4-2.4c-0.7-1-1.5-1.9-2.5-2.7h-0.1l-0.1-0.1l-0.3-0.2l-0.3-0.2
				c-0.1-0.1-0.2-0.1-0.3-0.2c-0.2-0.1-0.4-0.3-0.6-0.4l-0.6-0.3c-0.1-0.1-0.2-0.1-0.3-0.2l-0.3-0.1l-0.3-0.1L66.8,53l-0.3-0.1
				c-0.1,0-0.2-0.1-0.3-0.1l-0.7-0.2l0,0c-0.1,0-0.1-0.1-0.1-0.1l0.1-0.5h0.1c0.4,0.1,0.8,0.2,1.2,0.3c0.2,0.1,0.4,0.1,0.6,0.2
				l0.6,0.2c0.1,0,0.2,0.1,0.3,0.1l0.3,0.1c0.2,0.1,0.4,0.2,0.6,0.3l0.5,0.3c0.1,0.1,0.2,0.1,0.3,0.2l0.3,0.2
				c0.1,0.1,0.2,0.1,0.3,0.2c0.1,0.1,0.2,0.1,0.3,0.2c0.2,0.2,0.4,0.3,0.6,0.5s0.4,0.4,0.6,0.5c0.1,0.1,0.2,0.2,0.3,0.3l0.3,0.3
				c0.4,0.4,0.6,0.8,1,1.2l0.4,0.7l0.1,0.2l0.1,0.2L74.2,58.7z"/>
		</g>
		<g>
			<path class="st1" d="M69.8,61.2c0.2,0.3,0.3,0.7,0.4,1c0.3,0.9,0.6,1.8,0.8,2.7c0,0.1,0,0.1-0.1,0c-0.3-0.8-0.7-1.6-1.1-2.3
				c-0.4-0.8-0.9-1.5-1.3-2.2c-0.6-1-1.2-1.9-2-2.8c-0.6-0.7-1.1-1.4-1.8-2c-0.6-0.6-1.3-1.2-2-1.8l0,0c-0.1,0-0.1-0.1-0.1-0.1
				l0.3-0.4H63c1.2,0.9,2.4,2,3.4,3.2c0.6,0.7,1.2,1.4,1.7,2.2c0.3,0.4,0.5,0.8,0.8,1.2C69.4,60.3,69.6,60.7,69.8,61.2z"/>
		</g>
		<g>
			<path class="st1" d="M61.6,65.2c0.1,0.4,0.1,0.7,0.2,1.1c0.1,1,0.2,1.9,0.2,2.9c0,0.1-0.1,0.1-0.1,0c-0.1-0.9-0.3-1.7-0.5-2.6
				c-0.2-0.8-0.5-1.7-0.7-2.5c-0.3-1.1-0.7-2.2-1.2-3.3c-0.4-0.8-0.8-1.6-1.2-2.4c-0.4-0.8-0.9-1.6-1.4-2.3l0,0c0-0.1-0.1-0.1,0-0.1
				l0.4-0.3c0,0,0.1,0,0.1,0.1c1,1.3,1.8,2.6,2.5,4.1c0.4,0.8,0.8,1.7,1.1,2.6c0.2,0.5,0.3,0.9,0.4,1.4
				C61.4,64.3,61.5,64.7,61.6,65.2z"/>
		</g>
		<g>
			<path class="st1" d="M66.3,63.6c0.1,0.3,0.3,0.7,0.4,1.1c0.3,1,0.5,1.9,0.7,2.9c0,0.1,0,0.1-0.1,0c-0.3-0.9-0.7-1.7-1-2.5
				c-0.4-0.8-0.8-1.6-1.2-2.4c-0.5-1.1-1.1-2.1-1.8-3.1c-0.5-0.8-1.1-1.5-1.6-2.3c-0.6-0.7-1.2-1.4-1.8-2.1l0,0
				c0-0.1-0.1-0.1-0.1-0.1l0.3-0.4c0,0,0.1,0,0.1,0.1c1.2,1.1,2.3,2.4,3.2,3.7c0.6,0.8,1.1,1.6,1.6,2.5c0.3,0.4,0.5,0.9,0.7,1.3
				C66,62.7,66.2,63.1,66.3,63.6z"/>
		</g>
		<g>
			<path class="st1" d="M57.5,59.5c0.3,0.8,0.5,1.6,0.6,2.4c0.1,0.8,0.2,1.8,0.2,2.2c0,0.1-0.1,0.1-0.1,0c-0.4-1.4-0.8-2.8-1.3-4.2
				c-0.4-1.3-1-2.6-1.6-3.8l0,0V56l0.4-0.2c0,0,0,0,0.1,0C56.5,57,57.1,58.2,57.5,59.5z"/>
		</g>
		<g>
			<path class="st1" d="M61.2,58.3c0.5,0.7,0.9,1.5,1.1,2.4c0.3,0.8,0.5,1.8,0.6,2.3c0,0.1-0.1,0.1-0.1,0c-0.6-1.4-1.3-2.7-2.1-4
				c-0.8-1.2-1.7-2.3-2.6-3.4l0,0v-0.1l0.3-0.4c0,0,0,0,0.1,0C59.6,56.1,60.5,57.1,61.2,58.3z"/>
		</g>
		<g>
			<path class="st1" d="M64.7,56.6c0.5,0.6,0.9,1.3,1.2,2.1c0.1,0.2,0.1,0.4,0.2,0.6c0.1,0.2,0.1,0.4,0.2,0.6
				c0.1,0.2,0.1,0.4,0.1,0.5c0,0.2,0.1,0.3,0.1,0.4c0,0.1,0,0.1-0.1,0c-0.6-1.2-1.4-2.4-2.2-3.4c-0.8-1-1.7-1.9-2.7-2.7l0,0
				c0,0,0,0,0-0.1l0.3-0.4c0,0,0,0,0.1,0C62.9,54.8,63.9,55.6,64.7,56.6z"/>
		</g>
		<g>
			<path class="st1" d="M67.9,54.5c0.7,0.5,1.3,1.1,1.7,1.8c0.5,0.7,0.9,1.5,1.1,1.9c0,0.1,0,0.1-0.1,0c-0.9-1.1-1.9-2.1-3-3
				c-1-0.8-2.2-1.5-3.5-2l0,0c0,0,0,0,0-0.1l0.1-0.5c0,0,0,0,0.1,0C65.6,53.1,66.8,53.7,67.9,54.5z"/>
		</g>
		<g>
			<path class="st1" d="M70.4,52.1c0.7,0.4,1.4,0.8,2,1.4c0.1,0.1,0.3,0.3,0.4,0.4c0.1,0.1,0.3,0.3,0.4,0.4c0.1,0.2,0.2,0.3,0.3,0.4
				c0.1,0.1,0.2,0.3,0.2,0.3c0,0.1,0,0.1-0.1,0c-0.5-0.5-1-0.9-1.6-1.3c-0.6-0.4-1.1-0.7-1.7-1c-1.1-0.6-2.4-1.1-3.6-1.4l0,0
				c0,0,0,0,0-0.1l0.1-0.5c0,0,0,0,0.1,0C68,51.1,69.2,51.5,70.4,52.1z"/>
		</g>
		<g>
			<path class="st1" d="M72.8,49.9c0.7,0.3,1.3,0.6,1.9,1.1c0.6,0.4,1.2,0.9,1.5,1.2v0.1c-1.1-0.5-2.3-1-3.4-1.5s-2.2-0.9-3.3-1.3
				l0,0c0,0,0,0,0-0.1l0.1-0.5c0,0,0,0,0.1,0C70.6,49.1,71.7,49.4,72.8,49.9z"/>
		</g>
		<g>
			<path class="st1" d="M74.8,47.7c0.7,0.2,1.4,0.5,2,0.9s1.3,0.8,1.6,1.1v0.1c-1.2-0.5-2.4-0.9-3.6-1.3c-1.1-0.4-2.3-0.7-3.5-0.9
				l0,0l0,0l0.1-0.5c0,0,0,0,0.1,0C72.6,47.1,73.7,47.3,74.8,47.7z"/>
		</g>
		<g>
			<path class="st1" d="M76.5,44.8c0.7,0.2,1.4,0.4,2.1,0.7s1.4,0.7,1.7,0.9v0.1c-1.2-0.3-2.5-0.5-3.7-0.8c-1.2-0.2-2.4-0.4-3.5-0.5
				l0,0l0,0v-0.5c0,0,0,0,0.1,0C74.2,44.5,75.4,44.5,76.5,44.8z"/>
		</g>
	</g>
</g>
</svg>
