<?xml version="1.0" encoding="utf-8"?>
<!-- Generator: Adobe Illustrator 25.2.1, SVG Export Plug-In . SVG Version: 6.00 Build 0)  -->
<svg version="1.1" id="Layer_1" xmlns="http://www.w3.org/2000/svg" xmlns:xlink="http://www.w3.org/1999/xlink" x="0px" y="0px"
	 viewBox="0 0 100 100" style="enable-background:new 0 0 100 100;" xml:space="preserve">
<style type="text/css">
	.st0{fill:#FEF3EA;}
	.st1{fill:#0F0F0F;}
	.st2{fill:#C9C9C9;}
	.st3{fill:#FFFFFF;}
</style>
<g>
	<g>
		<circle class="st0" cx="50" cy="50" r="50"/>
	</g>
	<g>
		<polygon class="st1" points="47.4,54.4 50.3,55.8 59.4,60 70.6,65.3 78.1,68.8 78.8,69.1 79.3,69.1 79.6,69 79.9,68.9 80,68.7 
			80.4,67.9 80.8,66.9 80.9,66.4 80.7,66 80.5,65.7 78.1,64.6 69.8,60.7 63.1,57.7 54.6,53.7 48.9,51.1 48.6,51.5 48,52.5 
			47.7,53.2 47.5,53.9 		"/>
		<path class="st1" d="M33,48.1l-0.5,0.2l-1.6,0.5l-2.2,0.4l-3.9,0.6l-3.3,0.5l-1.4,0.1l-0.5-0.2l-0.4-0.3l-0.1-0.4l0.1-0.4
			c0,0,0.1-0.2,0.1-0.4c0-0.1-0.1-0.2-0.1-0.2c0-0.1-0.4-0.3-0.4-0.3L18.7,48l0.2-0.5c0,0,0.3-0.8,0.3-0.9c0-0.2,0.1,0-0.1-0.3
			c-0.1-0.3-0.3-0.4-0.3-0.6c0-0.2,0.1-0.3,0.1-0.3s0.2-0.1,0.3-0.4c0.2-0.3,0-0.7,0-0.7v-0.5l0.1-0.3c0,0,0.1-0.2,0.2-0.3
			c0-0.1-0.1-0.5-0.1-0.5c0-0.1-0.1-0.3-0.1-0.4c0,0,0.2-0.1,0.3-0.2c0.1-0.1,0.3-0.1,0.5-0.2s0.3-0.2,0.3-0.3s-0.2-0.4-0.2-0.5
			c0,0-0.2-0.3-0.2-0.4c0-0.1,0.1-0.3,0.1-0.4c0,0,0.2-0.1,0.3-0.1l0.3-0.1c0,0,0.1-0.2,0.1-0.3s-0.1-0.6-0.2-0.7L20.5,39l0.4-0.4
			c0,0,0.3-0.3,0.4-0.5s0.3-0.7,0.3-0.7s0.2-0.5,0.3-0.5c0.1,0,0.3-0.1,0.4-0.1c0.1,0.1,0.3,0,0.3,0c0.1,0,0.2,0,0.2-0.1
			s0-0.3-0.1-0.7c-0.1-0.3,0-0.5,0.1-0.7C22.9,35.2,23,35,23,35c0.1,0,0.3-0.2,0.5-0.3c0.1-0.1,0.2,0,0.2-0.2s-0.1-0.4,0-0.4
			c0.1-0.1,0.1-0.1,0.2-0.1s0.1,0.1,0.2,0.1s0.3,0,0.4-0.1c0.1,0,0.1-0.1,0.2-0.2c0.1-0.1,0.2-0.5,0.2-0.6s0.3-0.2,0.3-0.2
			s0.3-0.2,0.4-0.2s0.4-0.1,0.4-0.2c0-0.1,0-0.4,0.1-0.5c0-0.1,0.2-0.2,0.2-0.3l0.2-0.1c0.1,0,0.1,0.1,0.3-0.1
			c0.2-0.2,0.3-0.6,0.5-0.8c0.2-0.1,0.3-0.3,0.3-0.4c0.1,0,0.4-0.1,0.4-0.1l0.2,0.2l1.2,2.1l2.6,4.5l1,1.9l1,2l0.8,1.8l0.1,0.8
			L33,48.1z"/>
		<path class="st2" d="M30.4,46.5c0,0-0.1,0.5,0,0.7s0.4,0.4,0.4,0.4l0.8,0.3l0.9,0.1h0.7l1.6,0.6L40,51l4.2,1.9l3.2,1.5v-0.6
			l0.2-0.7l0.2-0.7l0.5-0.8l0.5-0.6l-0.2-0.1l-4.9-2.4L36.5,45l-1.4-0.7l-0.6-0.5l-0.9-0.7L33,42.8l-0.7-0.1L31.9,43l-0.4,0.5
			L31,44.4l-0.4,0.8L30.4,46.5z"/>
		<path class="st2" d="M79.9,68.8h0.3l0.3-0.2l0.3-0.3l0.3-0.7v-0.5L81,66.8l-0.1-0.2l-0.1-0.1v0.2l-0.3,0.7l-0.3,0.7L79.9,68.8z"/>
		<path class="st3" d="M33.1,48.1L33.1,48.1c0,0-1.1,0.6-2.7,0.9c-1.1,0.2-7,1.2-10,1.5c-0.6,0.1-1.1-0.2-1.4-0.7
			c0,0-0.2-0.3,0.1-0.9c0.1-0.2,0-0.3-0.2-0.5c-0.2-0.1-0.4-0.3-0.3-0.6c0-0.1,0.1-0.2,0.1-0.3c0.2-0.4,0.4-1,0.2-1.2
			c0-0.1-0.1-0.1-0.2-0.2c-0.1-0.2-0.3-0.4-0.1-0.7c0.1-0.1,0.1-0.2,0.2-0.2c0.1-0.1,0.2-0.2,0.2-0.5v-0.1c0-0.4-0.1-0.8,0.2-1.4
			c0.1-0.3,0.1-0.5,0-0.7s-0.1-0.3,0-0.5c0.1-0.1,0.2-0.1,0.4-0.2c0.3-0.1,0.6-0.2,0.5-0.4c0-0.1-0.1-0.2-0.2-0.4
			c-0.2-0.2-0.4-0.5-0.1-0.8c0.1-0.1,0.1-0.1,0.3-0.1c0.2,0,0.4-0.1,0.4-0.4c0-0.3-0.1-0.5-0.2-0.6s-0.1-0.2,0-0.3
			c0.2-0.1,0.5-0.3,0.8-1c0-0.1,0.1-0.2,0.1-0.3c0.2-0.4,0.4-0.8,0.9-0.8h0.1c0.1,0,0.2,0,0.3-0.1c0.1-0.1,0-0.2,0-0.4
			c0-0.1,0-0.1,0-0.2v-0.1c0-0.3,0-0.6,0.2-0.9c0.1-0.1,0.3-0.2,0.4-0.3c0.2-0.1,0.4-0.2,0.4-0.5l0,0c0-0.1,0-0.1,0-0.2
			c0-0.1,0.1-0.1,0.1-0.1h0.1c0,0,0,0,0.1,0l0,0c0.1,0.1,0.3,0.1,0.4,0s0.2-0.2,0.2-0.3s0-0.2,0.1-0.3c0.1-0.3,0.4-0.4,0.7-0.5h0.1
			c0.1,0,0.2,0,0.3-0.1c0.2-0.1,0.2-0.2,0.2-0.4c0-0.1,0-0.3,0.1-0.4s0.2-0.1,0.3-0.2h0.1c0.1-0.1,0.2-0.2,0.3-0.3l0.1-0.1
			c0.2-0.4,0.6-0.9,0.9-0.9c0.2,0,0.3,0.1,0.4,0.3c0.4,0.6,0.5,0.8,0.6,1c0,0.1,0.1,0.1,0.1,0.2c0.3,0.6,0.7,1.2,1,1.8
			c0.7,1.2,1.4,2.4,2.1,3.7c0.1,0.2,0.2,0.3,0.3,0.5c0.9,1.6,1.7,3.1,2.3,4.8v0.1c0.1,0.3,0.3,0.7,0.3,1.1c0,0,0,0.1-0.1,0.1
			c0,0-0.1,0-0.1-0.1c0-0.4-0.2-0.8-0.3-1c0-0.1,0-0.1-0.1-0.1c-0.6-1.7-1.4-3.2-2.3-4.7c-0.1-0.2-0.2-0.3-0.3-0.5
			c-0.7-1.2-1.4-2.5-2.1-3.7c-0.3-0.6-0.7-1.2-1-1.8c0-0.1-0.1-0.1-0.1-0.2c-0.1-0.2-0.2-0.4-0.6-1c-0.1-0.2-0.2-0.2-0.3-0.2
			c-0.3,0-0.6,0.5-0.8,0.8l-0.1,0.1c-0.1,0.1-0.2,0.3-0.4,0.4c-0.1,0-0.1,0-0.2,0s-0.1,0-0.2,0.1s-0.1,0.2-0.1,0.3
			c0,0.2,0,0.4-0.3,0.5C25.2,33,25.1,33,25,33h-0.1c-0.3,0-0.5,0.2-0.6,0.4c-0.1,0.1-0.1,0.2-0.1,0.3S24.1,34,24,34.1
			c-0.2,0.1-0.5,0.2-0.6,0l0,0l0,0l0,0l0,0v0.1l0,0c0,0.4-0.3,0.5-0.5,0.6c-0.1,0.1-0.3,0.1-0.4,0.3c-0.2,0.2-0.2,0.5-0.1,0.8V36
			c0,0.1,0,0.1,0,0.2c0,0.2,0.1,0.4,0,0.5c-0.1,0.2-0.3,0.1-0.4,0.1h-0.1c-0.4,0-0.6,0.3-0.7,0.7c0,0.1-0.1,0.2-0.1,0.3
			c-0.4,0.7-0.7,0.9-0.9,1l0,0c0,0,0,0.1,0.1,0.1c0.1,0.1,0.2,0.4,0.2,0.7c0,0.5-0.3,0.5-0.5,0.6c-0.1,0-0.1,0-0.2,0
			c-0.2,0.2-0.1,0.4,0.1,0.6c0.1,0.1,0.2,0.3,0.2,0.4c0,0.3-0.3,0.5-0.6,0.6c-0.1,0.1-0.3,0.1-0.3,0.2c-0.1,0.1-0.1,0.1,0,0.3
			s0.2,0.4,0,0.8C19,43.6,19,44,19,44.4v0.1c0,0.3-0.1,0.4-0.2,0.6c-0.1,0.1-0.1,0.1-0.2,0.2c-0.1,0.2,0,0.3,0.1,0.5
			c0.1,0.1,0.1,0.1,0.2,0.2c0.2,0.3,0,0.8-0.2,1.3c0,0.1-0.1,0.2-0.1,0.3c-0.1,0.2,0,0.3,0.2,0.4c0.2,0.1,0.4,0.3,0.2,0.7
			c-0.3,0.5-0.1,0.7-0.1,0.7c0.3,0.4,0.7,0.7,1.3,0.6c2.9-0.3,8.8-1.3,9.9-1.5c1.6-0.4,2.7-0.9,2.7-0.9h0.1
			C33.2,48.1,33.2,48.1,33.1,48.1z"/>
		<path d="M47.6,54.6C47.5,54.6,47.5,54.6,47.6,54.6c-3.8-1.8-13.8-6.5-14.4-6.5c-0.1,0-0.3,0-0.4,0c-0.4,0-0.8,0-1.1-0.1
			c-0.4-0.1-1.3-0.4-1.3-1c0-1.2,0.7-3,1.6-4c0.4-0.4,0.9-0.5,1.5-0.2c0.4,0.2,1.3,0.9,1.6,1.2c0.3,0.3,11.2,5.5,14.1,6.9
			c0,0,0.1,0.1,0,0.1c0,0-0.1,0.1-0.1,0c-0.1-0.1-13.9-6.6-14.2-7c-0.3-0.3-1.1-1-1.5-1.2c-0.6-0.3-1-0.2-1.3,0.1
			c-0.9,1-1.6,2.6-1.6,3.9c0,0.5,0.8,0.7,1.2,0.8C32,48,32.4,48,32.8,48c0.1,0,0.3,0,0.4,0C34,48,47,54.3,47.6,54.6
			C47.6,54.5,47.6,54.6,47.6,54.6L47.6,54.6z"/>
		<path d="M47.6,54.6C47.6,54.7,47.6,54.7,47.6,54.6c-0.1,0-0.2,0-0.2-0.1c-0.2-0.3,0.2-1.3,0.4-1.9c0.3-0.5,0.9-1.6,1.2-1.6h0.1
			v0.1H49c-0.2,0-0.7,0.8-1.1,1.5c-0.3,0.7-0.5,1.5-0.4,1.8l0,0C47.6,54.5,47.7,54.6,47.6,54.6L47.6,54.6z"/>
		<path d="M47.1,53.3L47.1,53.3c-2.2-0.9-3.9-1.7-5.7-2.6c-0.7-0.4-1.5-0.7-2.3-1.1c-0.4-0.2-0.7-0.4-1.1-0.5
			c-1.5-0.8-3.1-1.5-4.9-2c-1-0.2-1.4,0.2-1.6,0.4h-0.1v-0.1c0.2-0.2,0.6-0.6,1.7-0.4c1.9,0.4,3.5,1.2,5,2c0.3,0.2,0.7,0.4,1.1,0.5
			c0.8,0.4,1.6,0.8,2.3,1.1c1.8,0.9,3.5,1.7,5.7,2.6C47.1,53.2,47.1,53.2,47.1,53.3C47.1,53.2,47.1,53.2,47.1,53.3z"/>
		<path d="M48.1,51.3L48.1,51.3c-5.6-2.7-9.5-4.5-11.4-5.3c-0.4-0.2-0.8-0.3-1-0.4c-0.9-0.4-1.4-0.7-2-1.2c-0.3-0.2-0.6-0.6-0.7-1
			v-0.1h0.1c0.1,0.4,0.4,0.7,0.6,0.9c0.5,0.4,1.1,0.8,1.9,1.2c0.2,0.1,0.5,0.2,1,0.4c1.9,0.8,5.8,2.6,11.4,5.3
			C48.1,51.2,48.1,51.2,48.1,51.3L48.1,51.3z"/>
		<path d="M31,47.1L31,47.1C30.9,47.1,30.9,47.1,31,47.1c0.1-0.9,0.3-1.6,0.6-2.2c0.2-0.6,0.6-1,0.9-1.5c0.1-0.1,0.2-0.3,0.3-0.4
			h0.1v0.1c-0.1,0.1-0.2,0.3-0.3,0.4c-0.3,0.5-0.6,0.9-0.9,1.4C31.4,45.6,31.2,46.2,31,47.1L31,47.1z"/>
		<path d="M79.6,69.1c-0.1,0-0.1,0.1-0.2,0.1c-0.3,0.1-0.7,0-1.1-0.2c0,0-30.5-14.4-30.8-14.5c0,0-0.1-0.1,0-0.1c0,0,0.1-0.1,0.1,0
			c0.3,0.1,30.8,14.5,30.8,14.5c0.4,0.2,0.7,0.2,1,0.2c0.3-0.1,0.7-0.5,0.8-0.8c0.3-0.5,0.5-1,0.6-1.5c0.1-0.6-0.4-0.9-0.7-1.1
			C79.8,65.6,49.3,51.5,49,51.3c0,0-0.1-0.1,0-0.1c0,0,0.1-0.1,0.1,0c0.3,0.1,30.9,14.3,31.1,14.4c0.6,0.3,0.9,0.7,0.8,1.2
			s-0.3,1.1-0.6,1.6C80.2,68.6,79.9,68.9,79.6,69.1z"/>
		<path d="M80.4,68.8c-0.2,0.1-0.4,0.1-0.6,0.1c0,0-0.1-0.1,0-0.1c0,0,0.1-0.1,0.1,0c0.4,0.1,0.9-0.3,1.1-0.9
			c0.2-0.5,0.2-0.9-0.2-1.2v-0.1h0.1c0.5,0.4,0.4,1,0.2,1.3C81,68.3,80.7,68.6,80.4,68.8z"/>
		<path class="st3" d="M30.1,47.8C30.1,47.8,30,47.8,30.1,47.8c-1.3,0.3-2.7,0.5-4,0.7c-2.2,0.3-4.5,0.4-6.8,0.4c0,0-0.1,0-0.1-0.1
			c0,0,0-0.1,0.1-0.1c2.2,0,4.5-0.1,6.7-0.4c1.3-0.2,2.7-0.4,4-0.7C30,47.6,30.1,47.7,30.1,47.8C30.1,47.7,30.1,47.7,30.1,47.8z"/>
		<path class="st3" d="M29.6,46.6L29.6,46.6c-2.1,0.1-4.3,0.2-6.4,0.3c-1.4,0.1-2.7,0.1-4.1,0.2c0,0-0.1,0-0.1-0.1
			c0,0,0-0.1,0.1-0.1c1.4-0.1,2.7-0.1,4.1-0.2c2.1-0.1,4.2-0.2,6.3-0.3C29.6,46.4,29.6,46.5,29.6,46.6
			C29.6,46.5,29.6,46.5,29.6,46.6z"/>
		<path class="st3" d="M28.7,46.2L28.7,46.2l-1.2,0.1l-8.4,0.2c0,0-0.1,0-0.1-0.1c0,0,0-0.1,0.1-0.1l8.4-0.2L28.7,46.2
			C28.7,46.1,28.8,46.1,28.7,46.2C28.8,46.2,28.8,46.2,28.7,46.2z"/>
		<path class="st3" d="M29.3,45.4L29.3,45.4l-10-0.3c0,0-0.1,0-0.1-0.1c0,0,0-0.1,0.1-0.1l10,0.3C29.3,45.3,29.3,45.3,29.3,45.4
			L29.3,45.4z"/>
		<path class="st3" d="M30.3,44.1C30.2,44.2,30.2,44.2,30.3,44.1c-1.4-0.7-2.7-1.5-4-2.1c-1.9-1-3.9-1.9-5.9-2.8c0,0,0,0,0-0.1
			c0,0,0,0,0.1,0c2,0.9,4,1.8,5.9,2.8C27.6,42.6,29,43.3,30.3,44.1L30.3,44.1L30.3,44.1z"/>
		<path class="st3" d="M29.9,42.4L29.9,42.4c-0.7-0.5-1.4-1.1-2-1.6c-1.7-1.4-3.4-2.8-5.1-4.2v-0.1h0.1c1.7,1.4,3.4,2.8,5.1,4.2
			C28.6,41.2,29.3,41.8,29.9,42.4C30,42.4,30,42.4,29.9,42.4C30,42.4,29.9,42.4,29.9,42.4z"/>
		<path class="st3" d="M32.9,41.5L32.9,41.5C32.9,41.6,32.8,41.6,32.9,41.5c-0.9-1.4-1.7-2.8-2.5-4.2c-1.1-1.9-2.2-3.8-3.4-5.7v-0.1
			h0.1c1.2,1.9,2.3,3.8,3.4,5.7C31.3,38.7,32.1,40.1,32.9,41.5L32.9,41.5z"/>
		<path class="st3" d="M30.3,37.6C30.3,37.6,30.2,37.6,30.3,37.6c-0.3-0.4-0.6-0.8-0.8-1.3c-0.9-1.4-1.8-2.8-2.7-4.2V32h0.1
			c0.9,1.4,1.9,2.8,2.7,4.2C29.8,36.7,30.1,37.1,30.3,37.6C30.3,37.5,30.3,37.6,30.3,37.6L30.3,37.6z"/>
		<path class="st3" d="M31.8,41.8C31.8,41.9,31.8,41.8,31.8,41.8c-0.4-0.6-0.8-1.3-1.2-1.9c-1.4-2.3-3-4.6-4.6-6.7v-0.1h0.1
			c1.6,2.2,3.2,4.4,4.6,6.7C31.1,40.5,31.5,41.1,31.8,41.8C31.9,41.8,31.8,41.8,31.8,41.8L31.8,41.8z"/>
		<path class="st3" d="M30.1,40.3C30.1,40.4,30,40.3,30.1,40.3c-0.6-0.8-1.2-1.6-1.8-2.3c-1.1-1.4-2.3-2.8-3.4-4.1v-0.1H25
			c1.2,1.3,2.3,2.7,3.4,4.1C28.9,38.7,29.5,39.5,30.1,40.3L30.1,40.3L30.1,40.3z"/>
		<path class="st3" d="M29.3,40.3C29.3,40.3,29.2,40.3,29.3,40.3c-0.8-0.7-1.5-1.5-2.1-2.3c-1.1-1.2-2.1-2.4-3.1-3.6v-0.1h0.1
			c1,1.2,2.1,2.4,3.1,3.6C27.9,38.7,28.6,39.5,29.3,40.3C29.3,40.2,29.3,40.3,29.3,40.3L29.3,40.3z"/>
		<path class="st3" d="M27.9,41.1C27.8,41.2,27.8,41.2,27.9,41.1c-1.2-0.8-2.4-1.6-3.5-2.4c-0.7-0.5-1.5-1-2.2-1.5v-0.1h0.1
			c0.8,0.5,1.5,1,2.2,1.5C25.5,39.4,26.7,40.2,27.9,41.1L27.9,41.1L27.9,41.1z"/>
		<path class="st3" d="M28.2,44.6L28.2,44.6c-1.6-0.1-3.2-0.3-4.8-0.5c-1.3-0.2-2.6-0.6-3.8-1c0,0,0,0,0-0.1c0,0,0,0,0.1,0
			c1.3,0.4,2.5,0.7,3.8,0.9c1.6,0.3,3.1,0.5,4.7,0.5C28.2,44.5,28.2,44.5,28.2,44.6L28.2,44.6z"/>
		<path class="st3" d="M25.7,43.8L25.7,43.8c-0.6-0.1-1.2-0.3-1.8-0.5c-1.2-0.4-2.4-0.8-3.6-1.3c0,0,0,0,0-0.1c0,0,0,0,0.1,0
			c1.2,0.5,2.4,1,3.6,1.3C24.6,43.4,25.2,43.5,25.7,43.8C25.7,43.7,25.7,43.7,25.7,43.8L25.7,43.8z"/>
		<path class="st3" d="M27.5,42.9C27.5,42.9,27.4,42.9,27.5,42.9c-1.1-0.4-2.2-0.8-3.2-1.2c-1.3-0.4-2.6-0.9-4-1.2c0,0,0,0,0-0.1
			c0,0,0,0,0.1,0c1.3,0.4,2.7,0.8,4,1.2C25.5,42,26.5,42.4,27.5,42.9C27.5,42.8,27.5,42.9,27.5,42.9L27.5,42.9z"/>
		<path class="st3" d="M26.8,47.7L26.8,47.7c-1.3,0.1-2.6,0.2-3.8,0.4c-1.1,0.1-2.2,0.3-3.3,0.5h-0.1v-0.1c1.1-0.2,2.2-0.3,3.3-0.5
			C24.2,47.8,25.4,47.7,26.8,47.7C26.8,47.6,26.8,47.6,26.8,47.7C26.8,47.6,26.8,47.7,26.8,47.7z"/>
		<path class="st3" d="M27,41.7L27,41.7c-1-0.5-1.9-1.1-2.9-1.7c-0.9-0.6-1.9-1.1-2.8-1.7v-0.1h0.1c0.9,0.6,1.9,1.1,2.8,1.7
			C25.2,40.5,26.1,41.1,27,41.7C27.1,41.6,27.1,41.7,27,41.7L27,41.7z"/>
		<path class="st3" d="M27.3,39.1L27.3,39.1c-0.9-0.6-1.7-1.4-2.4-2.2c-0.4-0.5-0.8-1.1-1.2-1.6v-0.1h0.1c0.3,0.6,0.7,1.1,1.2,1.6
			C25.7,37.6,26.5,38.4,27.3,39.1C27.4,39,27.4,39.1,27.3,39.1C27.4,39.1,27.4,39.1,27.3,39.1z"/>
		<path class="st3" d="M26.6,43.6L26.6,43.6c-0.5-0.2-0.9-0.3-1.4-0.4c-0.5-0.2-0.9-0.3-1.5-0.4c-0.2-0.1-0.5-0.1-0.9-0.2
			c-0.5-0.1-1-0.3-1.5-0.4c0,0,0,0,0-0.1c0,0,0,0,0.1,0c0.5,0.1,1,0.3,1.5,0.4c0.4,0.1,0.6,0.2,0.9,0.2c0.6,0.2,0.9,0.3,1.5,0.4
			C25.8,43.2,26.2,43.4,26.6,43.6C26.7,43.5,26.7,43.5,26.6,43.6C26.7,43.5,26.6,43.6,26.6,43.6z"/>
		<path d="M47.3,54.5L47.3,54.5C47.2,54.5,47.2,54.5,47.3,54.5c-0.2-0.4,0-1.2,0.3-1.8c0.4-0.8,0.8-1.5,1.2-1.8h0.1V51
			C48,51.5,47,53.8,47.3,54.5C47.3,54.4,47.3,54.5,47.3,54.5z"/>
	</g>
</g>
</svg>
