<svg width="12" height="10" viewBox="0 0 12 10" fill="none" xmlns="http://www.w3.org/2000/svg">
<path d="M7.69749 0.374225C7.30173 -0.0109874 6.66862 -0.00243378 6.28341 0.393331C5.89819 0.789095 5.90675 1.4222 6.30251 1.80742L7.69749 0.374225ZM11 4.98418L11.6975 5.70077C11.8909 5.51252 12 5.25408 12 4.98418C12 4.71427 11.8909 4.45583 11.6975 4.26758L11 4.98418ZM6.30251 8.16094C5.90675 8.54615 5.89819 9.17926 6.28341 9.57502C6.66862 9.97078 7.30173 9.97934 7.69749 9.59413L6.30251 8.16094ZM1.69749 0.374225C1.30173 -0.0109874 0.668618 -0.00243378 0.283405 0.393331C-0.101808 0.789095 -0.0932541 1.4222 0.30251 1.80742L1.69749 0.374225ZM5 4.98418L5.69749 5.70077C5.8909 5.51252 6 5.25408 6 4.98418C6 4.71427 5.8909 4.45583 5.69749 4.26758L5 4.98418ZM0.30251 8.16094C-0.0932541 8.54615 -0.101808 9.17926 0.283405 9.57502C0.668618 9.97078 1.30173 9.97934 1.69749 9.59413L0.30251 8.16094ZM6.30251 1.80742L10.3025 5.70077L11.6975 4.26758L7.69749 0.374225L6.30251 1.80742ZM10.3025 4.26758L6.30251 8.16094L7.69749 9.59413L11.6975 5.70077L10.3025 4.26758ZM0.30251 1.80742L4.30251 5.70077L5.69749 4.26758L1.69749 0.374225L0.30251 1.80742ZM4.30251 4.26758L0.30251 8.16094L1.69749 9.59413L5.69749 5.70077L4.30251 4.26758Z" fill="white"/>
</svg>
