<svg width="579" height="682" viewBox="0 0 579 682" fill="none" xmlns="http://www.w3.org/2000/svg">
<g opacity="0.7">
<path d="M323.04 681.44C392.57 539.13 464.34 397.94 533.83 255.62C542.2 237.05 551.23 218.21 554.67 197.99C534.36 213.92 513.64 229.4 491.11 242.11C462.89 258.14 433.31 271.68 405.22 287.96C373.95 306.64 345.4 329.16 319.41 354.65C277.08 394.72 234.76 434.88 194.34 476.89C181.83 491.03 168 504.11 156.82 519.33C149.47 527.7 141.81 541.38 131.1 544.97C119.63 548.42 109.04 538.32 106.13 527.84C103.11 517.24 103.92 506.3 105.85 495.6C122.07 430.36 180.07 389.44 222.95 341.74C280.72 275.29 325.5 198.65 380.58 129.95C343.51 155.45 306.86 181.64 273.07 211.41C244.07 237.5 218.15 266.65 192.11 295.64C149.44 342.58 109.64 391.97 71.74 442.83C50.24 471.9 28.83 501.2 5.65997 528.88C6.04997 529.22 6.66997 529.11 7.10997 529.26C0.299972 532.67 5.68997 520.09 6.47997 517.68C28.02 471.19 65.54 434.28 97.91 395.24C149.88 334.67 203.61 275.97 256.42 216.22C298.82 167.67 330.03 110.89 368.63 59.53C387.54 36.68 405.31 17.17 432.41 6.08999C443.33 1.72 455.45 -0.100005 466.59 4.59C478.26 9.26999 484.22 23.84 479.05 35.34C479.06 35.34 479.06 35.34 479.07 35.34C467.15 70.7 423.73 98.96 394.5 120.4C351.06 176.72 309.7 234.61 269.06 292.98C260.1 307.13 250.64 320.99 243.2 336.02C217.04 382.64 202.21 434.38 178.83 482.25C218.01 446.67 254.4 408.15 293.19 372.15C319.09 347.43 346.26 324.06 369.98 297.17C404.07 257.54 431.2 211.15 474.13 180.02C495.01 166.35 518.55 155.08 543.88 153.99C557.09 153.8 572.53 159.25 576.23 173.31C578.85 186.55 570.15 198.79 564.61 210.2C482.14 366.22 408.79 527.09 323.04 681.44Z" fill="#FCF3F0"/>
</g>
</svg>
