<svg width="897" height="1020" viewBox="0 0 897 1020" fill="none" xmlns="http://www.w3.org/2000/svg">
<path d="M867.542 366.304C889.295 371.4 897 397.852 878.43 411.84C868.872 418.224 856.877 419.007 846.335 423.21C829.619 428.987 813.012 435.073 796.52 441.462C762.748 454.546 729.479 468.904 696.788 484.496C697.694 488.827 698.046 493.279 697.797 497.719C733.447 487.272 755.553 527.614 731.637 554.831C725.147 562.576 715.99 567.763 707.094 572.306C692.401 579.807 677.155 586.161 662.007 592.684C608.577 615.576 553.658 636.993 504.725 668.68C494.839 675.744 485.037 682.942 474.756 689.423C466.024 694.914 456.892 700.101 447.023 703.247C440.589 707.584 434.166 711.933 427.731 716.269C402.52 733.689 378.208 752.391 354.31 771.554C334.233 788.579 313.476 805.361 297.076 826.085C343.986 804.59 388.799 778.867 434.986 755.895C508.091 719.476 584.387 690.024 659.996 659.308C675.357 653.168 690.675 646.705 705.076 638.524C716.531 631.927 725.621 619.257 739.986 619.737C757.85 619.148 771.899 637.315 766.624 654.449C760.092 677.014 735.775 685.991 716.555 695.424C657.073 721.541 599.365 751.856 545.856 788.798C502.215 820.874 463.399 859.206 429.724 901.578C410.219 926.219 392.64 952.301 375.765 978.795C367.471 991.69 359.444 1004.76 351.314 1017.76C350.281 1019.42 348.063 1020 346.404 1018.99C344.812 1018.03 344.071 1015.69 345.177 1014.08C347.632 1010.49 350.074 1006.9 352.304 1003.69C354.826 1000.04 357.597 996.051 359.997 992.577C376.276 969.599 391.461 945.887 407.812 922.964C443.019 875.144 481.197 829.189 524.692 788.646C572.143 744.276 624.145 705.045 675.958 665.953C637.817 676.917 601.413 692.964 565.69 710.098C527.427 728.757 489.072 747.416 453.191 770.424C416.641 794.969 381.775 821.9 346.58 848.31C329.165 860.889 312.054 875.095 291.066 881.169C283.471 882.791 275.48 884.328 267.83 882.257C251.399 878.624 239.751 862.711 246.945 846.244C253.04 830.975 271.227 828.472 283.373 819.768C333.309 784.989 378.226 743.407 426.528 706.405C397.665 705.907 375.844 675.307 387.42 648.23C387.341 648.181 387.262 648.139 387.183 648.09C359.019 670.679 313.707 695.782 283.428 663.177C267.52 664.641 251.083 658.173 241.3 645.375C219.2 666.561 197.088 690.419 167.205 700.113C126.268 710.663 92.8354 668.668 118.867 633.306C118.861 633.306 118.849 633.306 118.842 633.306C131.81 614.465 165.175 602.779 185.823 593.067C178.756 574.019 184.96 550.78 201.451 538.602C208.95 532.522 218.55 529.649 227.793 527.074C222.178 522.962 217.207 517.86 213.902 511.689C210.226 513.426 206.379 514.835 202.442 515.813C175.645 541.372 145.974 563.9 114.042 582.668C121.486 586.282 121.692 597.725 114.376 601.613C104.514 607.431 94.7799 613.445 85.2156 619.743C73.5914 626.424 52.5549 643.273 35.2797 650.021C28.9359 652.5 23.0964 653.617 18.4176 652.366C4.27172 649.074 0.00608021 632.195 10.2813 622.136C17.0869 615.516 26.6572 612.831 34.356 607.401C34.6659 607.201 34.9758 607 35.2857 606.8C66.3605 586.792 99.6592 570.411 130.169 549.523C146.047 538.614 161.28 526.807 176.392 514.859C158.673 508.506 149.589 485.771 159.992 469.39C165.758 459.678 176.283 455.372 186.418 451.168C185.027 447.202 184.249 442.993 184.14 438.723C181.509 441.025 178.883 443.333 176.271 445.653C153.113 466.693 131.384 489.252 108.227 510.267C91.9543 524.365 75.548 540.036 54.2927 545.939C48.0158 547.689 41.3682 547.184 35.2857 544.998C29.0939 542.775 23.4853 538.809 19.4445 533.707C8.76827 520.186 14.4436 500.525 27.4472 490.709C30.0782 489.063 32.6729 487.345 35.2857 485.656C37.4854 484.241 39.6972 482.844 41.9576 481.538C83.7634 458.457 126.705 437.387 167.113 411.846C178.877 402.249 190.672 392.689 202.49 383.165C212.012 373.793 224.299 364.403 236.719 355.742C302.532 303.312 369.215 251.987 436.876 201.957C442.12 195.889 447.704 189.754 453.507 183.917C385.53 213.443 319.789 248.38 257.512 288.54C213.452 317.664 171.981 350.391 130.509 383.026C106.756 401.235 83.2225 420.465 56.2311 433.712C49.5896 436.634 42.5592 439.191 35.2736 439.695C34.9515 439.719 34.6356 439.737 34.3135 439.75C18.9888 439.658 4.89152 427.407 13.4775 411.761C16.4063 406.665 21.2371 403.069 26.8031 401.32C29.6407 399.923 32.4724 398.514 35.2797 397.056C38.5974 395.337 41.8847 393.545 45.1052 391.638C72.1756 375.366 96.2808 354.891 120.671 334.969C254.334 227.819 401.438 139.068 539.099 37.3727C515.091 43.9386 492.177 53.7297 469.366 63.5573C405.667 90.5071 344.393 122.723 284.729 157.63C246.988 180.243 209.691 203.615 172.133 226.526C149.881 241.225 124.998 252.054 103.396 267.531C103.39 267.561 103.384 267.591 103.378 267.622C104.885 268.132 106.368 268.259 107.893 268.624C107.893 268.624 107.893 268.63 107.893 268.636C87.3788 273.525 118.976 246.709 122.713 243.508C140.007 228.603 158.722 215.471 177.917 203.141C261.912 150.973 353.593 112.695 442.673 70.2325C479.241 53.5232 517.413 40.1364 552.638 20.621C564.365 13.715 584.04 -0.0059615 591.211 19.552C593.161 29.2155 587.322 38.2838 579.702 43.7564C570.198 51.7314 559.352 57.8114 548.803 64.2497C428.788 129.775 309.94 198.173 200.048 279.867C156.346 312.994 111.125 344.979 72.1574 383.694C143.823 346.831 211.234 302.437 282.091 264.111C341.774 231.257 403.261 201.981 464.937 173.124C478.748 161.013 493.362 151.671 507.496 149.442C508.097 149.345 508.699 149.266 509.295 149.199C519.223 142.099 528.982 134.682 539.476 128.457C549.15 121.241 562.22 114.857 573.632 122.164C588.968 131.506 587.455 151.446 574.567 162.319C568.947 167.087 562.797 171.102 556.368 174.697C560.282 178.827 562.487 184.555 561.454 190.532C560.622 196.436 557.025 201.726 551.842 204.672C551.495 204.866 551.155 205.067 550.809 205.261C550.122 206.816 549.32 208.353 548.402 209.871C548.366 209.932 548.323 209.999 548.287 210.059C557.857 205.777 566 198.987 574.598 192.943C584.332 185.916 594.079 178.913 603.862 171.952C616.829 163.436 628.751 152.552 643.911 148.16C643.905 148.173 643.899 148.185 643.893 148.197C670.508 140.775 691.617 172.905 674.257 194.419C661.01 212.453 627.973 219.608 607.319 228.117C612.873 231.573 617.522 236.42 620.76 242.099C626.934 252.935 627.505 266.304 622.516 277.607C625.877 279.915 628.884 282.758 631.376 286.068C633.989 289.542 636.006 293.46 637.312 297.602C651.859 288.151 667.488 275.676 685.899 278.008C703.102 280.17 716.932 296.072 716.555 313.419C716.439 332.782 701.479 347.858 685.705 357.035C694.497 358.991 701.479 363.34 706.565 369.116C714.525 364.725 722.467 360.309 730.415 355.893C731.551 355.262 733.016 355.65 733.66 356.786C734.322 357.952 733.861 359.337 732.767 360.03C725.287 364.749 717.813 369.481 710.357 374.231C716.008 383.341 717.898 394.754 715.783 405.851C742.216 395.064 769.067 385.346 796.52 377.213C801.813 375.646 807.13 374.133 812.465 372.688C830.293 368.102 849.106 361.876 867.542 366.304ZM796.526 418.546C796.733 418.442 796.94 418.339 797.146 418.242C796.94 418.291 796.733 418.333 796.526 418.382C755.754 427.371 715.656 439.1 676.141 452.584C681.221 456.161 685.547 460.692 688.974 465.831C725.445 450.828 761.769 435.765 796.526 418.546ZM508.845 237.823C513.846 234.537 518.847 231.251 523.848 227.959C519.29 229.277 514.374 230.237 509.058 231.318C506.84 232.539 504.658 233.82 502.495 235.145C504.768 235.825 506.888 236.73 508.845 237.823ZM485.384 348.192C490.768 346.023 495.568 343.126 499.797 339.13C480.93 347.08 462.579 356.112 444.301 365.308C441.628 366.632 439.009 368.047 436.384 369.456C434.95 370.228 433.516 370.999 432.082 371.771C449.885 364.014 467.726 356.294 485.384 348.192Z" fill="#FCF3F0" fill-opacity="0.7"/>
<path d="M496.2 255.765C489.68 251.708 504.768 238.947 509.058 237.744C511.057 236.961 513.104 236.384 515.274 236.626C517.473 236.961 519.205 238.552 521.186 239.463C522.887 240.095 523.805 241.929 521.946 243.034C521.903 242.494 522.395 241.644 521.757 241.334C519.612 240.884 517.322 240.356 515.134 240.404C505.138 242.962 501.942 259.446 496.2 255.765Z" fill="#FCF3F0" fill-opacity="0.7"/>
<path d="M481.987 271.308C467.507 269.559 462.482 249.977 474.27 241.419C487.201 232.436 515.517 211.353 528.599 228.785C534.305 229.478 535.794 237.744 530.629 240.338C528.703 249.503 518.215 251.538 511.713 256.658C507.854 259.148 503.947 261.566 500.071 264.032C494.699 267.889 489.121 272.693 481.987 271.308Z" fill="#FCF3F0" fill-opacity="0.7"/>
<path d="M400.818 409.775C383.725 400.051 384.333 373.532 401.693 364.397C422.031 354.302 444.885 351.35 466.438 344.815C472.745 340.763 478.87 336.433 485.232 332.473C494.875 327.249 511.093 315.818 521.885 317.136C531.145 318.065 538.072 328.154 535.18 337.095C533.278 343.74 527.013 348.708 520.032 348.623C512.406 351.508 504.883 354.66 497.33 357.734C483.543 362.945 470.248 369.359 457.159 376.119C450.414 384.532 443.262 392.61 436.353 400.871V400.865C429.438 412.903 412.625 417.161 400.818 409.775Z" fill="#FCF3F0" fill-opacity="0.7"/>
</svg>
