<svg width="18" height="18" viewBox="0 0 18 18" fill="none" xmlns="http://www.w3.org/2000/svg">
<path d="M10 4.68488C10 4.1326 9.55229 3.68488 9 3.68488C8.44772 3.68488 8 4.1326 8 4.68488H10ZM9 9.01083H8C8 9.56312 8.44772 10.0108 9 10.0108V9.01083ZM13.4444 10.0108C13.9967 10.0108 14.4444 9.56312 14.4444 9.01083C14.4444 8.45855 13.9967 8.01083 13.4444 8.01083V10.0108ZM9 15.7975C5.10836 15.7975 2 12.7337 2 9.01083H0C0 13.8889 4.05508 17.7975 9 17.7975V15.7975ZM2 9.01083C2 5.28794 5.10836 2.22412 9 2.22412V0.224121C4.05508 0.224121 0 4.13276 0 9.01083H2ZM9 2.22412C12.8916 2.22412 16 5.28794 16 9.01083H18C18 4.13276 13.9449 0.224121 9 0.224121V2.22412ZM16 9.01083C16 12.7337 12.8916 15.7975 9 15.7975V17.7975C13.9449 17.7975 18 13.8889 18 9.01083H16ZM8 4.68488V9.01083H10V4.68488H8ZM9 10.0108H13.4444V8.01083H9V10.0108Z" fill="white"/>
</svg>
