<?xml version="1.0" encoding="utf-8"?>
<!-- Generator: Adobe Illustrator 25.2.1, SVG Export Plug-In . SVG Version: 6.00 Build 0)  -->
<svg version="1.1" id="Layer_1" xmlns="http://www.w3.org/2000/svg" xmlns:xlink="http://www.w3.org/1999/xlink" x="0px" y="0px"
	 viewBox="0 0 92 70" style="enable-background:new 0 0 92 70;" xml:space="preserve">
<style type="text/css">
	.st0{clip-path:url(#SVGID_2_);fill:url(#SVGID_3_);}
	.st1{clip-path:url(#SVGID_5_);fill:url(#SVGID_6_);}
</style>
<g>
	<g>
		<defs>
			<path id="SVGID_1_" d="M90.3,22.5c-1.9-0.2-6.8-0.6-13.8,1.3c-0.9-7.2-2.9-12.9-5.3-18.9C61.3,8.3,52.5,14,46,20.5
				C39.5,14,30.7,8.3,20.8,4.8c-2.5,6-4.5,11.6-5.3,18.9c-7.5-2-11.9-1.4-13.8-1.3c-2.1,10.9-0.5,23.3,6.2,32.4
				c9.4,12.8,24.3,13.2,32,14.3c-3.2-3.1-10.5-10.7-12-12.8c0,0,0,0,0,0h0c-6.9-9-9.1-18.5-8.6-29.5c0.1-2.3,0.5-4.6,0.8-6.2l0,0
				c0.7-3.6,1.7-7.1,3-10.6c3.7,1.6,12.5,5.9,20.2,13.5c-2.9,3.2-5.2,6.7-7.1,10.3c0,0-5.4-4.9-13.9-7.8c-0.1,1.4-0.2,2.9-0.2,4.3
				c12.4,5.4,20.6,14.6,23.8,20c2.6-3.5,4.4-6.2,8.4-9.9c0.7,2,1.3,4.1,1.7,6.2c-1.2,2-5.3,8.1-10.1,12.1c-4.8-4-8.8-10.1-10.1-12.1
				c0.2-1.1,0.4-2.1,0.7-3.1c-0.9-0.9-2.1-1.9-3.3-2.9c-0.8,2.4-1.2,4.5-1.6,6.8c4.8,8.8,10.1,13.1,14.2,16.5
				c4.4-3.5,10.4-8.5,14.4-16.5c-1.8-10.4-8-19.4-9.7-21.6c-1,1-2,2-2.8,2.9c1.9,2.5,3.5,5.1,4.9,7.8c-2.4,2.2-4.6,4.5-6.6,7
				c-2-2.5-4.2-4.9-6.6-7c3.2-6.5,8.9-13,11.6-15.1c0,0,0,0,0,0C58,15.1,65.5,11.4,68.9,10c1.9,5.1,3.2,10.1,3.7,14.9
				c-5.4,1.8-10.2,4.3-14.6,7.4c0.7,1.1,1.3,2.4,1.8,3.7c4-2.8,9.8-6,15-7.6c4.8-1.4,9.8-2.1,12-2.1c0.5,4.3,1.1,16.6-6,26.2
				c-4,5.5-9.9,9.3-17.6,11.3c5.7-5.9,13.5-16.8,13.7-33.1c-1.4,0.4-2.8,0.8-4.1,1.3c-0.4,10.6-4.1,18.4-8.7,24.3h0
				c-0.3,0.3-8,8-12.9,12.8C59,68,74.7,67.7,84.1,54.9C90.8,45.8,92.4,33.4,90.3,22.5 M28.8,63.8c-7.7-2-13.6-5.8-17.6-11.3
				c-7.1-9.6-6.4-21.9-6-26.2c0,0,0.1,0,0.1,0c2.9,0,6.3,0.5,9.9,1.5C14.3,45.6,22.7,57.6,28.8,63.8z"/>
		</defs>
		<clipPath id="SVGID_2_">
			<use xlink:href="#SVGID_1_"  style="overflow:visible;"/>
		</clipPath>
		
			<linearGradient id="SVGID_3_" gradientUnits="userSpaceOnUse" x1="381.3781" y1="251.4105" x2="382.2381" y2="251.4105" gradientTransform="matrix(93.0224 -60.8343 56.8165 86.8786 -49755.0977 1421.9347)">
			<stop  offset="0" style="stop-color:#4F1F00"/>
			<stop  offset="0.13" style="stop-color:#A17C49"/>
			<stop  offset="0.2" style="stop-color:#A17C49"/>
			<stop  offset="0.21" style="stop-color:#A17C49"/>
			<stop  offset="0.37" style="stop-color:#D8BC75"/>
			<stop  offset="0.51" style="stop-color:#A17C49"/>
			<stop  offset="0.52" style="stop-color:#A17C49"/>
			<stop  offset="0.77" style="stop-color:#FFE995"/>
			<stop  offset="0.98" style="stop-color:#673B0F"/>
			<stop  offset="1" style="stop-color:#673B0F"/>
		</linearGradient>
		<polygon class="st0" points="27.4,111.7 121.8,49.9 64.6,-37.7 -29.8,24.1 		"/>
	</g>
	<g>
		<defs>
			<path id="SVGID_4_" d="M41.2,3.1c-2.1,2.7-1.6,6.6,1,8.7c2.7,2.1,6.6,1.6,8.7-1c2.1-2.7,1.6-6.6-1-8.7C47.2,0,43.3,0.5,41.2,3.1z
				"/>
		</defs>
		<clipPath id="SVGID_5_">
			<use xlink:href="#SVGID_4_"  style="overflow:visible;"/>
		</clipPath>
		
			<linearGradient id="SVGID_6_" gradientUnits="userSpaceOnUse" x1="412.1066" y1="272.1384" x2="412.7266" y2="272.1384" gradientTransform="matrix(-12.2123 12.7989 -12.795 -12.2086 8564.6719 -1949.1923)">
			<stop  offset="0" style="stop-color:#7B5127"/>
			<stop  offset="0.49" style="stop-color:#D8BC76"/>
			<stop  offset="1" style="stop-color:#FEE895"/>
		</linearGradient>
		<polygon class="st1" points="45.7,-7 32.1,7.3 46.4,20.9 60,6.6 		"/>
	</g>
</g>
</svg>
