<svg width="20" height="20" viewBox="0 0 20 20" fill="none" xmlns="http://www.w3.org/2000/svg">
<g clip-path="url(#clip0_29_19)">
<path fill-rule="evenodd" clip-rule="evenodd" d="M1.95264 0H17.6896V0.0393864H17.8865V0.0771265H18.0341V0.116513L18.2639 0.155893V0.195279C18.3459 0.219894 18.4116 0.247785 18.4936 0.2724V0.318346H18.5756C18.5794 0.347036 18.5907 0.374211 18.6084 0.397113H18.6905C18.7069 0.436496 18.7396 0.474243 18.756 0.513626H18.8382C18.9202 0.605519 18.9859 0.695772 19.0679 0.787665C19.1007 0.800793 19.117 0.813918 19.1498 0.827046V0.904172C19.1856 0.933419 19.2242 0.959242 19.2648 0.981299V1.05842C19.2812 1.07319 19.3141 1.08468 19.3305 1.09781V1.17165H19.3796C19.396 1.24877 19.4289 1.33574 19.4453 1.4063H19.4946C19.4974 1.48545 19.5084 1.56408 19.5274 1.64096H19.5601V1.80506H19.6094V1.99212H19.6422V18.0079H19.6094V18.2048H19.5601V18.3607H19.5274C19.5084 18.4376 19.4974 18.5162 19.4946 18.5953H19.4453C19.4289 18.6725 19.396 18.7512 19.3796 18.83H19.3305V18.9071C19.3141 18.9203 19.2812 18.9334 19.2648 18.9449V19.0253C19.224 19.0476 19.1854 19.074 19.1498 19.104V19.1812C19.0514 19.2599 18.9695 19.3453 18.871 19.4158C18.8672 19.4445 18.8559 19.4717 18.8382 19.4946H18.756C18.7396 19.5323 18.7069 19.5734 18.6905 19.6111H18.6084C18.5907 19.634 18.5794 19.6612 18.5756 19.6899H18.4936V19.7292C18.4116 19.7555 18.3459 19.7801 18.2639 19.808V19.8458L18.0341 19.8851V19.9245H17.8865V19.9639H17.6896V20.0016H1.95264V19.9623H1.77215V19.9229H1.6081V19.8835C1.54246 19.8704 1.46039 19.8572 1.37834 19.8441V19.8047C1.3127 19.7768 1.23063 19.7522 1.14858 19.726V19.6817H1.08288L1.0338 19.6029H0.968101C0.935386 19.5681 0.907682 19.5289 0.885973 19.4864H0.804045C0.732135 19.3912 0.655435 19.2998 0.574287 19.2123C0.557877 19.1992 0.524994 19.1877 0.508584 19.173V19.1024C0.467751 19.0801 0.429357 19.0537 0.393805 19.0236V18.9449C0.364978 18.9358 0.337331 18.9231 0.311677 18.9071V18.8284H0.278826C0.244312 18.7528 0.216966 18.6743 0.196898 18.5937H0.164047L0.11477 18.359H0.0819191V18.2048H0.0328426V18.0079H-8.65851e-06V3.00788C-0.0405065 2.51261 -0.00181827 2.01406 0.11477 1.53102H0.164047V1.4063H0.196898V1.32754H0.22975C0.262569 1.25041 0.278858 1.16344 0.311677 1.09288C0.337656 1.07707 0.36522 1.06388 0.393805 1.0535V0.974732C0.42927 0.945049 0.467685 0.919196 0.508584 0.897606V0.820479C0.544049 0.790796 0.582664 0.764949 0.623564 0.743359C0.678351 0.661144 0.738634 0.582743 0.804045 0.508699H0.885973C0.90772 0.466206 0.93542 0.426987 0.968101 0.392193H1.0338L1.08288 0.313426C1.14852 0.287171 1.23059 0.260914 1.31264 0.2363V0.195279L1.95264 0ZM14.1943 2.29734V2.33508L13.9974 2.37611V2.41385C13.9278 2.44013 13.8651 2.48183 13.8139 2.53583C13.7628 2.58984 13.7244 2.65473 13.702 2.72564C13.619 2.86709 13.5898 3.03374 13.6198 3.19495V4.2107C13.5442 4.75975 13.5835 5.3185 13.7348 5.85166C13.7676 5.86479 13.7839 5.87791 13.8167 5.89104C13.945 6.00352 14.0984 6.08355 14.264 6.12439C14.4297 6.16522 14.6028 6.16567 14.7686 6.1257C15.5243 6.16559 16.2821 6.13923 17.0331 6.04693L17.2301 5.81392H17.2629V5.73351H17.2956V5.66459H17.3448V5.5448H17.3777V4.68658C17.3777 3.84969 17.5418 2.67805 17.0003 2.38924C16.702 2.30351 16.3898 2.27675 16.0813 2.31047H14.1943V2.29734ZM9.32052 6.16508C9.18876 6.2125 9.05027 6.23854 8.91028 6.24221L8.17193 6.51625C7.29803 6.9834 6.61777 7.74498 6.25194 8.6659C6.1863 8.93994 6.12069 9.21398 6.07146 9.48638C6.02434 9.90324 6.03541 10.3246 6.10431 10.7384H6.13716V10.9337H6.18644V11.0502H6.21909V11.2143H6.25194V11.3292H6.30122V11.4063H6.33407V11.5228H6.36692C6.39974 11.6016 6.41603 11.6869 6.44885 11.7575H6.4817L6.53097 11.9216C6.54738 11.9347 6.58027 11.9462 6.59668 11.9593L6.64575 12.1234C6.66216 12.1365 6.69505 12.1497 6.71145 12.1628V12.2416C6.75232 12.2632 6.79073 12.289 6.82623 12.3187V12.3974L7.02334 12.5533V12.6255L7.22025 12.7814C7.22405 12.8101 7.2352 12.8373 7.2529 12.8602H7.33503L7.48266 13.0538H7.56479C7.58119 13.0932 7.61408 13.1309 7.63049 13.1703H7.71242C7.72985 13.1928 7.74119 13.2193 7.74527 13.2475L7.90932 13.2868C7.92573 13.3131 7.92576 13.3394 7.94217 13.3656L8.0898 13.4034V13.446C8.17185 13.4706 8.25392 13.4985 8.31956 13.5231V13.5625H8.43454C8.87293 13.7577 9.34968 13.8513 9.82932 13.8366H10.3215L11.1257 13.6396V13.5937H11.2077V13.556H11.3226V13.5166C11.3883 13.4903 11.4702 13.4641 11.5522 13.4395V13.3984L11.7 13.3607C11.7177 13.3378 11.7291 13.3106 11.7329 13.2819C11.7985 13.2688 11.8477 13.2557 11.8969 13.2425C11.9133 13.2163 11.9134 13.1917 11.9298 13.1654H12.0117C12.0336 13.123 12.0613 13.0838 12.0938 13.0489H12.1593C12.209 12.9803 12.2641 12.9155 12.3236 12.8553H12.3891C12.439 12.7858 12.494 12.72 12.5534 12.6584C12.5698 12.6452 12.6025 12.6321 12.6189 12.619V12.5386L12.8158 12.3827V12.2973C12.8486 12.2711 12.8979 12.2448 12.9308 12.2202V12.148C12.9636 12.1349 12.9799 12.1218 13.0127 12.1086C13.0151 12.0526 13.0262 11.9972 13.0455 11.9445C13.0783 11.9314 13.0948 11.9199 13.1277 11.9068C13.13 11.8507 13.1411 11.7954 13.1605 11.7427H13.1932C13.226 11.6639 13.2425 11.5868 13.2753 11.508H13.3081V11.4063H13.3574V11.3292H13.3901L13.5872 10.5087V10.0394C13.607 9.61354 13.5398 9.18812 13.3901 8.78898V8.67247H13.3574V8.5937H13.3081V8.47719H13.2753C13.2425 8.40007 13.226 8.3131 13.1932 8.24254H13.1605C13.141 8.18991 13.1299 8.13452 13.1277 8.07844C13.0948 8.06531 13.0783 8.05219 13.0455 8.03906C13.026 7.98643 13.0149 7.93105 13.0127 7.87496C12.9799 7.86348 12.9636 7.85035 12.9308 7.83558V7.77322C12.8979 7.74697 12.8486 7.72071 12.8158 7.69446V7.61733L12.6189 7.45324C12.1373 6.86346 11.4831 6.43937 10.7481 6.24057H10.5512C10.1457 6.16477 9.73202 6.14161 9.32052 6.17165V6.16508ZM2.26452 8.46242V14.9229C2.1729 15.7589 2.22277 16.6043 2.41215 17.4237H2.46143C2.47784 17.4631 2.51052 17.5025 2.52693 17.5418H2.60906C2.62649 17.5643 2.63783 17.5909 2.64191 17.619C2.91824 17.7019 3.2084 17.7287 3.49524 17.6977H16.0322C16.4014 17.7449 16.7764 17.688 17.1151 17.5336V17.5008C17.1508 17.471 17.1894 17.4446 17.2301 17.4221V17.3449C17.2465 17.3302 17.2791 17.3187 17.2956 17.3039V17.1874H17.3448V17.0709H17.3777V8.47719H15.6874C15.7055 8.66301 15.7442 8.84626 15.8024 9.02363V9.29767H15.8515V9.80473H15.8844C15.9009 9.93577 15.8897 10.0688 15.8515 10.1953V10.704H15.8024V11.0158H15.7696V11.211H15.7367V11.4063C15.6219 11.7345 15.5235 12.0627 15.425 12.3909H15.3922C15.3575 12.4663 15.3299 12.5449 15.3101 12.6255H15.2772V12.7027H15.2281V12.7732H15.1953V12.852H15.1624V12.9291L15.0803 13.0062V13.085C15.0475 13.0981 15.0312 13.1096 14.9984 13.1227C14.982 13.1753 14.9819 13.2278 14.9655 13.2786H14.9327L14.8834 13.3968C14.8576 13.4129 14.8302 13.4261 14.8015 13.4362V13.5133C14.7851 13.5264 14.7522 13.5396 14.7358 13.5527V13.6298C14.7029 13.6446 14.6865 13.6561 14.6536 13.6692C14.6372 13.7102 14.6372 13.7496 14.6208 13.7873C14.5691 13.8302 14.5143 13.8692 14.4567 13.9038V13.9826L14.1122 14.2944C13.9973 14.4388 13.8661 14.5816 13.7348 14.7227H13.6527C13.6202 14.7813 13.5818 14.8363 13.5379 14.8868C13.5005 14.9018 13.462 14.9144 13.4229 14.9245C13.4191 14.9532 13.4078 14.9804 13.3901 15.0033H13.3081C13.3043 15.032 13.293 15.0591 13.2753 15.0821C13.2425 15.0952 13.1933 15.1083 13.1605 15.1214V15.1592H13.0784C13.0746 15.1879 13.0632 15.215 13.0455 15.2379L12.8979 15.2757L12.8486 15.3545H12.7829L12.701 15.4316H12.6189V15.471H12.5534V15.5103H12.4712V15.5464H12.3891V15.5793C12.3235 15.6055 12.2414 15.6318 12.1593 15.6564V15.6958H12.0446V15.7434H11.9789V15.7827H11.8477V15.8221H11.7329V15.8615H11.6179V15.9009H11.4703C10.5531 16.2024 9.57021 16.2428 8.63145 16.0174L8.28671 15.978V15.9386L8.0243 15.8993V15.8599H7.90932V15.8205H7.79454V15.7811H7.67956V15.7434H7.59764V15.704H7.48266V15.6646C7.40061 15.64 7.33495 15.6137 7.2529 15.5875V15.5464H7.17097V15.5087H7.10527V15.4693H7.02334V15.4299C6.94129 15.4037 6.87563 15.3791 6.79358 15.3528C6.77589 15.3299 6.76453 15.3027 6.76073 15.274C6.69509 15.2626 6.6459 15.2478 6.59668 15.2363C6.58027 15.21 6.58023 15.1838 6.56382 15.1575H6.4817V15.1165C6.4442 15.1012 6.40594 15.088 6.36692 15.0771C6.35051 15.0509 6.35048 15.0246 6.33407 14.9984H6.25194C6.23553 14.9721 6.2355 14.9459 6.21909 14.9196L6.10431 14.8819C6.07149 14.8293 6.02235 14.7768 5.98953 14.7178C5.16417 14.0481 4.53021 13.1724 4.15166 12.1792V12.0709H4.10239V11.9527H4.06954V11.8362H4.03668L3.98741 11.5638H3.95456V11.3997H3.92191V11.211H3.87263V11.0158H3.83978V10.704H3.80693V10.1953C3.75441 10.0722 3.73731 9.93696 3.75765 9.80473H3.80693V9.29767H3.83978V9.01543C3.89798 8.83805 3.93641 8.6548 3.95456 8.46899H2.26452V8.46242Z" fill="#5E5E5E"/>
</g>
<defs>
<clipPath id="clip0_29_19">
<rect width="19.6423" height="20" fill="white"/>
</clipPath>
</defs>
</svg>
