<svg width="70" height="50" viewBox="0 0 70 50" fill="none" xmlns="http://www.w3.org/2000/svg">
<path d="M1.4 5.69998C1.8 7.09998 3.4 8.39998 4.3 9.49998C5.4 10.8 6.6 12.1 7.8 13.4C9 14.7 10.2 15.9 11.5 17C11.7 17.3 11.9 17.6 12.2 17.8C14 20 15.8 22.1 17.7 24.1C19.6 26.1 21.6 28.1 23.7 29.9C25.7 31.6 27.9 33.2 30.2 34.6C30.7 35.1 31.2 35.6 31.8 36.1C34 38.1 36.3 40.1 38.8 41.7C41.3 43.4 43.9 44.8 46.7 45.8C49.5 46.8 52.4 47.4 55.4 47.4C55.9 47.4 55.9 47.4 55.4 47.4C54.5 47.4 53.3 47.3 51.9 47.1C50.6 46.9 49.1 46.5 47.6 46C44.5 45 41.4 43.3 38.7 41.3C36.2 39.5 33.9 37.5 31.6 35.3C33.9 36.5 36.4 37.5 38.9 38.3C41.7 39.1 44.6 39.5 47.5 39.5C50.4 39.6 53.2 39.3 56 38.7C56.5 38.6 56.5 38.6 56 38.7C55.5 38.8 55 38.9 54.5 38.9C54.4 38.9 54.2 39 54.1 39C54 39 53.8 39 53.7 39C53.4 39 53.1 39.1 52.8 39.1C52.2 39.2 51.5 39.2 50.7 39.3C50 39.4 49.2 39.3 48.4 39.3C48.2 39.3 48 39.3 47.8 39.3C47.6 39.3 47.4 39.3 47.2 39.3C46.8 39.3 46.4 39.3 46 39.2C45.8 39.2 45.6 39.2 45.4 39.1C45.2 39.1 45 39.1 44.8 39C44.6 39 44.4 39 44.2 38.9H43.9L43.3 39C42.5 38.9 41.7 38.7 40.9 38.5C40.7 38.5 40.5 38.4 40.3 38.4L40 38.3C39.9 38.3 39.8 38.3 39.7 38.2C39.3 38.1 38.9 38 38.5 37.9C38.3 37.8 38.1 37.8 37.9 37.7L37.3 37.5C36.9 37.4 36.5 37.2 36.2 37.1C35.8 37 35.5 36.8 35.1 36.6C34.7 36.4 34.4 36.3 34 36.1C33.6 35.9 33.3 35.8 32.9 35.6L32.6 35.5L32.3 35.4L31.8 35.1L31.3 34.8C31.1 34.7 30.9 34.6 30.8 34.5L30.4 34.3C29.4 33.3 28.4 32.3 27.4 31.3C26.2 30.1 25 28.9 23.8 27.7C22.3 26.2 20.8 24.7 19.3 23.1C19.5 23.3 19.7 23.4 19.9 23.6C20.1 23.8 20.4 24 20.7 24.2L21.5 24.8C23.5 26.4 25.6 28 27.8 29.4L28.7 29.9L29.1 30.2C29.2 30.3 29.4 30.4 29.5 30.5L30.4 31L30.8 31.3C30.9 31.4 31.1 31.5 31.3 31.5C32.5 32.1 33.8 32.7 35 33.2C37.6 34.2 40.2 34.8 42.9 35.2C45.6 35.6 48.3 35.7 51 35.5C53.7 35.4 56.4 35 59 34.4C59.5 34.3 59.5 34.3 59 34.3C57.3 34.6 54.7 35 51.8 35.1C50.3 35.2 48.8 35.1 47.2 35.1C46.8 35.1 46.4 35 46 35H45.4C45.2 35 45 35 44.8 34.9C44.4 34.9 44 34.8 43.7 34.8C43.3 34.7 42.9 34.7 42.6 34.6C41.1 34.4 39.7 34 38.2 33.6C37.8 33.5 37.5 33.4 37.1 33.3L36.6 33.1C36.5 33.1 36.4 33 36.3 33L36 32.9C35.6 32.8 35.3 32.6 34.9 32.5C34.7 32.4 34.5 32.4 34.4 32.3L33.9 32.1C31.1 30.9 28.5 29.3 26 27.5C24.6 26.5 23.1 25.4 21.8 24.3C23.1 25 24.5 25.7 25.9 26.4L26 26.5L26.5 26.8L27 27.1C27.3 27.3 27.7 27.5 28 27.7C28.3 27.9 28.7 28.1 29 28.3L29.3 28.4L29.6 28.5L30.1 28.8C30.5 29 30.8 29.2 31.2 29.3C31.6 29.5 31.9 29.7 32.3 29.8L33.4 30.3L33.7 30.4L34 30.5L34.6 30.7L35.2 30.9C35.4 31 35.6 31 35.8 31.1C36.2 31.2 36.6 31.4 37 31.5L38.2 31.9C38.6 32 39 32.1 39.4 32.3C41 32.8 42.6 33.1 44.2 33.4C45.8 33.7 47.4 33.9 49.1 34C50.7 34.1 52.4 34.1 54 34C54.2 34 54.4 34 54.6 34H55L55.6 33.9C55.7 33.9 55.8 33.9 55.9 33.9H56.2L57.4 33.7C57.8 33.6 58.2 33.5 58.6 33.5C61.8 32.9 64.8 31.8 67.7 30.3C68.2 30 68.2 30 67.7 30.2C67.5 30.3 67.2 30.4 67 30.6C66.9 30.7 66.7 30.7 66.6 30.8C66.5 30.9 66.3 30.9 66.2 31C65.9 31.1 65.6 31.3 65.3 31.4C65 31.5 64.6 31.6 64.3 31.8C64.1 31.9 64 31.9 63.8 32C63.6 32.1 63.4 32.1 63.3 32.2C62.9 32.3 62.6 32.4 62.2 32.6C61.8 32.7 61.4 32.8 61 32.9C60.8 33 60.6 33 60.4 33C60.2 33 60 33.1 59.8 33.1C58.1 33.5 56.3 33.7 54.4 33.8C52.5 33.9 50.7 33.9 48.9 33.7C47.1 33.5 45.3 33.3 43.6 32.9C41.8 32.5 40.1 32 38.4 31.5C35.8 30.6 33.3 29.6 30.9 28.3C35.3 29.8 39.9 30.7 44.5 30.9H45.6H46.2C46.4 30.9 46.6 30.9 46.8 30.9C47.5 30.9 48.3 30.9 49 30.8C50.5 30.7 51.9 30.6 53.4 30.4C54.1 30.3 54.8 30.1 55.5 29.9L55.8 29.8L56.1 29.7C56.3 29.6 56.4 29.6 56.6 29.5C56.9 29.4 57.3 29.2 57.6 29.1C58.3 28.8 58.9 28.4 59.5 28C59.8 27.8 60.1 27.5 60.3 27.3C60.5 27 60.7 26.7 60.9 26.4C60.9 26.3 61 26.2 61 26.1C61 26 61 26 61 26C61 26 61 26.1 60.9 26.4C60.7 26.8 60.4 27.3 60 27.6C59.6 28 59 28.3 58.5 28.6C57.9 28.9 57.3 29.2 56.6 29.5C56.3 29.6 55.9 29.8 55.5 29.9C55.1 30 54.8 30.1 54.4 30.2C52.8 30.5 51.2 30.6 49.5 30.7C49.1 30.7 48.7 30.7 48.2 30.7C47.8 30.7 47.4 30.7 46.9 30.7C46.5 30.7 46.1 30.7 45.6 30.7C45.2 30.7 44.8 30.7 44.4 30.7C39.1 30.4 33.8 29.1 28.7 27.1C27.2 26.2 25.7 25.3 24.3 24.4C26.6 25.2 29 25.8 31.4 26.2C31.8 26.3 32.2 26.3 32.5 26.4C32.9 26.5 33.3 26.5 33.6 26.6C34.4 26.7 35.1 26.8 35.9 26.9C36.7 27 37.4 27.1 38.2 27.1L39.4 27.2C39.6 27.2 39.8 27.2 40 27.2H40.6C42.1 27.3 43.7 27.3 45.2 27.3C46.7 27.3 48.3 27.1 49.8 27C52.9 26.6 55.9 26 58.8 25C59.5 24.7 60.2 24.4 60.9 24.1C61.6 23.8 62.3 23.4 62.9 23C63.5 22.6 64.2 22.1 64.7 21.6C65.3 21.1 65.8 20.5 66.2 19.9C66.5 19.4 66.4 19.4 66.2 19.9C66.2 20 66.1 20 66.1 20.1C66.1 20.2 66 20.2 66 20.3C65.9 20.4 65.8 20.5 65.8 20.6C65.7 20.7 65.6 20.8 65.5 20.9C65.5 21 65.4 21 65.4 21.1L65.3 21.2L65.2 21.3C65.1 21.4 65 21.5 64.9 21.6C64.8 21.7 64.7 21.8 64.5 21.9C64.3 22.1 64 22.3 63.7 22.5C63.1 22.9 62.5 23.3 61.8 23.7C61.1 24.1 60.4 24.4 59.6 24.7C58.8 25 58 25.3 57.2 25.5C56.8 25.6 56.4 25.7 55.9 25.8C55.7 25.9 55.5 25.9 55.3 26C55.1 26 54.9 26.1 54.7 26.1C53 26.5 51.2 26.7 49.5 26.9C46.1 27.2 42.7 27.2 39.2 26.9C37.5 26.8 35.8 26.6 34 26.3C33.6 26.2 33.1 26.2 32.7 26.1L32.1 26L31.5 25.9C30.6 25.7 29.8 25.6 29 25.4C26.8 24.9 24.7 24.2 22.6 23.4C19.9 21.5 17.4 19.4 14.9 17.2C14.7 17 14.5 16.8 14.3 16.6C18.7 19.5 23.5 21.8 28.4 23.2L29.4 23.5C29.7 23.6 30.1 23.7 30.4 23.8C31.1 24 31.8 24.1 32.5 24.2C33.9 24.4 35.3 24.5 36.8 24.6C39.6 24.7 42.5 24.5 45.3 24.1C46.7 23.9 48.1 23.6 49.4 23.2C50.8 22.8 52.1 22.3 53.4 21.7C53.7 21.6 53.9 21.5 54.1 21.3C54.6 21.2 55.2 21.1 55.7 21C56.5 20.8 57.2 20.6 58 20.3C59.5 19.8 61 19.1 62.4 18.4C63.8 17.6 65.1 16.7 66.3 15.7C66.9 15.2 67.5 14.6 68 14C68.5 13.4 69 12.7 69.3 12C69.5 11.5 69.5 11.5 69.2 12C68.7 12.9 68 13.9 66.9 14.9C65.9 15.9 64.5 16.8 63.1 17.7C62.4 18.1 61.6 18.5 60.8 18.9C60 19.3 59.1 19.6 58.3 19.9C57.4 20.2 56.6 20.4 55.7 20.6C55.6 20.6 55.5 20.6 55.4 20.7C56 20.3 56.5 20 57 19.5C57.3 19.3 57.5 19 57.7 18.7C57.9 18.4 58.1 18.1 58.3 17.9C58.5 17.6 58.6 17.3 58.8 17C58.9 16.7 59 16.3 59.1 16C59.2 15.5 59.1 15.5 59 16C58.9 16.4 58.8 16.9 58.5 17.4C58.2 17.9 57.9 18.4 57.5 18.8C56.8 19.6 55.8 20.3 54.7 20.9C54.6 20.9 54.5 21 54.3 21C53.9 21.1 53.4 21.2 53 21.2L52.3 21.3L51 20.7C50.6 20.8 50.1 20.8 49.7 20.9C49.3 20.9 48.8 21 48.4 21H48.1H47.8L47 21.2H46.3C46.1 21.2 45.9 21.2 45.6 21.2C45.2 21.2 44.7 21.2 44.3 21.3C43.9 21.3 43.4 21.3 43 21.3C42.8 21.3 42.6 21.3 42.3 21.3H41.6C39.8 21.3 38 21.2 36.3 21C34.5 20.8 32.7 20.6 31 20.3C29.6 20.1 28.2 19.8 26.8 19.5C25.4 19.2 24.1 18.9 22.7 18.5C20 17.7 17.4 16.7 14.9 15.4C14.1 15 13.4 14.6 12.7 14.1C10.7 12.9 8.9 11.4 7.5 9.49998C6.8 8.59998 6.2 7.49998 5.8 6.39998C5.4 5.39998 5.5 3.99998 4.9 3.19998C4.2 2.29998 3.2 2.49998 2.5 3.19998C1.9 3.79998 1.2 4.39998 1.3 5.19998C1.3 5.39998 1.3 5.49998 1.4 5.69998ZM21 23.1L21.2 23.3C21.5 23.5 21.8 23.8 22.2 24C22.5 24.2 22.8 24.4 23.2 24.7C22.1 24.1 21 23.5 20 22.9C19.9 22.8 19.7 22.7 19.6 22.5C20 22.7 20.5 22.9 21 23.1ZM25.3 29.8C26.5 31 27.7 32.2 28.9 33.4L28.7 33.3L27.7 32.6C27.4 32.4 27 32.1 26.7 31.9L26.2 31.5C26.1 31.4 26 31.4 26 31.3L25.8 31.1L24.8 30.3C24.6 30.2 24.5 30 24.3 29.9L23.8 29.5L22.9 28.7L22.7 28.5L22.5 28.3L22 27.9C20.1 26.2 18.3 24.3 16.6 22.4C15.4 21 14.2 19.7 13 18.2C13.2 18.3 13.3 18.5 13.5 18.6C14.5 19.5 15.6 20.3 16.7 21.1C17.6 22 18.4 22.8 19.3 23.7C21.3 25.8 23.3 27.8 25.3 29.8ZM15.9 16.6C17.3 17.3 18.7 17.9 20.2 18.4C21.7 18.9 23.1 19.3 24.6 19.7C25 19.8 25.3 19.9 25.7 20C26.1 20.1 26.4 20.2 26.8 20.2C27.5 20.3 28.3 20.5 29 20.6C29.4 20.7 29.7 20.7 30.1 20.8C30.5 20.9 30.8 20.9 31.2 21C31.9 21.1 32.7 21.2 33.4 21.3C35 21.5 36.6 21.7 38.2 21.8C39 21.9 39.8 21.9 40.6 21.9C41 21.9 41.4 21.9 41.8 21.9C42.2 21.9 42.6 21.9 43 21.9H44.2C44.6 21.9 45 21.9 45.4 21.8H46C46.2 21.8 46.4 21.8 46.6 21.7L47.8 21.6C48.2 21.6 48.6 21.5 49 21.5L49.6 21.4C49.8 21.4 50 21.3 50.2 21.3L51.4 21.1C51.7 21.1 52 21 52.2 20.9C51.1 21.4 49.9 21.8 48.7 22.1C47.1 22.5 45.5 22.8 44 23C37.8 23.8 31.3 23.5 25.4 21.3C23.1 20.5 20.8 19.5 18.5 18.3L17.9 18C17.6 17.9 17.3 17.7 17.1 17.6L15.5 16.7L13.9 15.7L13.7 15.6L13.5 15.5C14.3 15.8 15.1 16.2 15.9 16.6ZM14.8 18.1C16 19.1 17.2 20.2 18.4 21.1C18.5 21.2 18.7 21.3 18.8 21.4C18.7 21.4 18.7 21.3 18.6 21.3L18.2 21.1H18L17.8 21L17.7 20.9C16.8 20.1 15.9 19.3 15.1 18.5C14.6 18 14.1 17.5 13.6 17C13.9 17.3 14.4 17.7 14.8 18.1ZM10.5 14.8C10.8 15.1 11.1 15.4 11.4 15.7C12 16.3 12.6 17 13.2 17.6C13.4 17.8 13.6 18 13.8 18.2L13.6 18L13.2 17.7L12.8 17.4C12.5 17.2 12.3 17 12 16.7C11.8 16.5 11.5 16.3 11.3 16.1C10.9 15.6 10.5 15.1 10.1 14.6C10.3 14.7 10.4 14.7 10.5 14.8ZM9.4 14.2C9.4 14.3 9.4 14.3 9.4 14.2C9.4 14.3 9.4 14.2 9.4 14.2Z" fill="#5E5E5E"/>
</svg>
