<svg width="16" height="20" viewBox="0 0 16 20" fill="none" xmlns="http://www.w3.org/2000/svg">
<path d="M7.12319 18.3142L7.74644 17.5322L7.12319 18.3142ZM8.87695 18.3142L9.5002 19.0962L8.87695 18.3142ZM7.72885 18.6919L7.99314 17.7275L7.72885 18.6919ZM8.271 18.6919L8.53529 19.6564L8.271 18.6919ZM8 8.23739C7.42207 8.23739 7 7.78825 7 7.29072H5C5 8.94342 6.36879 10.2374 8 10.2374V8.23739ZM7 7.29072C7 6.79318 7.42207 6.34404 8 6.34404V4.34404C6.36879 4.34404 5 5.63801 5 7.29072H7ZM8 6.34404C8.57793 6.34404 9 6.79318 9 7.29072H11C11 5.63801 9.63121 4.34404 8 4.34404V6.34404ZM9 7.29072C9 7.78825 8.57793 8.23739 8 8.23739V10.2374C9.63121 10.2374 11 8.94342 11 7.29072H9ZM7.74644 17.5322C6.84388 16.8129 5.38596 15.5241 4.16132 13.8669C2.9309 12.2018 2 10.252 2 8.1892H0C0 10.8489 1.19134 13.213 2.55283 15.0555C3.92011 16.9058 5.52378 18.3183 6.49994 19.0962L7.74644 17.5322ZM2 8.1892C2 6.6798 2.62252 5.22413 3.74377 4.14477L2.35673 2.7039C0.852473 4.15196 0 6.12428 0 8.1892H2ZM3.74377 4.14477C4.86632 3.06416 6.39671 2.45068 8.00004 2.45068V0.450684C5.89034 0.450684 3.8597 1.25708 2.35673 2.7039L3.74377 4.14477ZM8.00004 2.45068C9.60336 2.45068 11.1337 3.06416 12.2562 4.14478L13.6433 2.70391C12.1403 1.2571 10.1098 0.450684 8.00004 0.450684V2.45068ZM12.2562 4.14478C13.3775 5.22414 14 6.67976 14 8.18917H16C16 6.12426 15.1475 4.15198 13.6433 2.70391L12.2562 4.14478ZM14 8.18917C14 10.252 13.0691 12.2018 11.8387 13.8669C10.6141 15.5241 9.15625 16.8129 8.25371 17.5322L9.5002 19.0962C10.4764 18.3183 12.08 16.9057 13.4472 15.0554C14.8087 13.2129 16 10.8488 16 8.18917H14ZM6.49994 19.0962C6.72786 19.2779 7.02734 19.5365 7.46456 19.6564L7.99314 17.7275C7.9974 17.7286 8.00512 17.7313 8.01244 17.7347C8.01853 17.7376 8.01576 17.737 7.99996 17.7267C7.98258 17.7153 7.95584 17.6963 7.91181 17.6626C7.86709 17.6283 7.81603 17.5877 7.74644 17.5322L6.49994 19.0962ZM8.25371 17.5322C8.18421 17.5876 8.13315 17.6282 8.08849 17.6624C8.0445 17.6961 8.01774 17.7151 8.00034 17.7265C7.98451 17.7368 7.98168 17.7375 7.98766 17.7346C7.99488 17.7313 8.00251 17.7286 8.0067 17.7275L8.53529 19.6564C8.97228 19.5366 9.27168 19.2784 9.5002 19.0962L8.25371 17.5322ZM7.46456 19.6564C7.79376 19.7466 8.20608 19.7466 8.53529 19.6564L8.0067 17.7275C8.01694 17.7247 8.02357 17.7234 8.02608 17.7229C8.02872 17.7224 8.02893 17.7224 8.02668 17.7227C8.02449 17.723 8.02086 17.7233 8.01597 17.7236C8.0111 17.7239 8.00566 17.724 7.99992 17.724C7.99418 17.724 7.98875 17.7239 7.98388 17.7236C7.97898 17.7233 7.97535 17.723 7.97317 17.7227C7.97091 17.7224 7.97113 17.7224 7.97377 17.7229C7.97628 17.7234 7.9829 17.7247 7.99314 17.7275L7.46456 19.6564Z" fill="white"/>
</svg>
